<svg width="83" height="95" viewBox="0 0 83 95" fill="none" xmlns="http://www.w3.org/2000/svg">
  <g filter="url(#filter0_d)">
    <path d="M10 14C10 11.7909 11.7909 10 14 10H52.6849C53.8384 10 54.9357 10.4979 55.6952 11.366L65 22V73C65 75.2091 63.2091 77 61 77H14C11.7909 77 10 75.2091 10 73V14Z" fill="white"/>
    <path d="M10.5 14C10.5 12.067 12.067 10.5 14 10.5H52.6849C53.6942 10.5 54.6543 10.9357 55.3189 11.6952L64.5 22.1879V73C64.5 74.933 62.933 76.5 61 76.5H14C12.067 76.5 10.5 74.933 10.5 73V14Z" stroke="#001B55" stroke-opacity="0.1"/>
  </g>
  <rect x="21" y="19" width="25" height="3" rx="1.5" fill="#001B55" fill-opacity="0.5"/>
  <rect x="21" y="27" width="34" height="3" rx="1.5" fill="#001B55" fill-opacity="0.15"/>
  <rect x="21" y="35" width="34" height="3" rx="1.5" fill="#001B55" fill-opacity="0.15"/>
  <rect x="21" y="43" width="34" height="3" rx="1.5" fill="#001B55" fill-opacity="0.15"/>
  <rect x="21" y="51" width="34" height="3" rx="1.5" fill="#001B55" fill-opacity="0.15"/>
  <rect x="21" y="59" width="16" height="3" rx="1.5" fill="#001B55" fill-opacity="0.15"/>
  <rect x="21" y="67" width="16" height="3" rx="1.5" fill="#001B55" fill-opacity="0.15"/>
  <path d="M54.5 21.5V11.2854L63.8634 21.5H54.5Z" stroke="#E5E8EE"/>
  <path d="M45.6418 75.0215C46.0504 73.5972 46.2547 72.885 46.6218 72.5114C46.9888 72.1378 47.3753 72.2486 48.1484 72.4704L49.2416 72.7839C50.0146 73.0057 50.4011 73.1165 50.5143 73.6279C50.6275 74.1393 50.4233 74.8515 50.0147 76.2758L49.0285 79.7141C48.6409 81.0654 48.4471 81.741 48.157 81.8815C47.867 82.022 47.6984 81.5219 47.3612 80.5216L47.2533 80.2015C47.0637 79.6391 46.9689 79.3578 46.7799 79.3036C46.5908 79.2494 46.3614 79.4376 45.9025 79.814L45.6413 80.0283C44.8252 80.6977 44.4172 81.0324 44.2457 80.7596C44.0742 80.4867 44.268 79.8111 44.6556 78.4598L45.6418 75.0215Z" fill="#001B55"/>
  <path d="M54.5469 75.0215C54.1383 73.5972 53.934 72.885 53.567 72.5114C53.1999 72.1378 52.8134 72.2486 52.0404 72.4704L50.9471 72.7839C50.1741 73.0057 49.7876 73.1165 49.6744 73.6279C49.5612 74.1393 49.7655 74.8515 50.174 76.2758L51.1603 79.7141C51.5479 81.0654 51.7417 81.741 52.0317 81.8815C52.3217 82.022 52.4903 81.5219 52.8275 80.5216L52.9354 80.2015C53.125 79.6391 53.2198 79.3578 53.4088 79.3036C53.5979 79.2494 53.8273 79.4376 54.2862 79.814L54.5474 80.0283C55.3635 80.6977 55.7716 81.0324 55.943 80.7596C56.1145 80.4867 55.9207 79.8111 55.5331 78.4598L54.5469 75.0215Z" fill="#001B55"/>
  <circle cx="49.5" cy="68.5" r="6.5" fill="#808DAA"/>
  <defs>
    <filter id="filter0_d" x="0" y="0" width="83" height="95" filterUnits="userSpaceOnUse" color-interpolation-filters="sRGB">
      <feFlood flood-opacity="0" result="BackgroundImageFix"/>
      <feColorMatrix in="SourceAlpha" type="matrix" values="0 0 0 0 0 0 0 0 0 0 0 0 0 0 0 0 0 0 127 0" result="hardAlpha"/>
      <feOffset dx="4" dy="4"/>
      <feGaussianBlur stdDeviation="7"/>
      <feComposite in2="hardAlpha" operator="out"/>
      <feColorMatrix type="matrix" values="0 0 0 0 0 0 0 0 0 0.105882 0 0 0 0 0.333333 0 0 0 0.25 0"/>
      <feBlend mode="normal" in2="BackgroundImageFix" result="effect1_dropShadow"/>
      <feBlend mode="normal" in="SourceGraphic" in2="effect1_dropShadow" result="shape"/>
    </filter>
  </defs>
</svg>

