<svg width="88" height="100" viewBox="0 0 88 100" fill="none" xmlns="http://www.w3.org/2000/svg">
  <path fill-rule="evenodd" clip-rule="evenodd" d="M39.5 50C40.8807 50 42 48.8807 42 47.5C42 46.1193 40.8807 45 39.5 45C38.1193 45 37 46.1193 37 47.5C37 48.8807 38.1193 50 39.5 50ZM39.4143 48.4934L40.8031 46.8267L40.419 46.5066L39.2054 47.963L38.5656 47.3232L38.2121 47.6768L39.0454 48.5101L39.239 48.7037L39.4143 48.4934Z" fill="#4DC52F"/>
  <g filter="url(#filter0_d)">
    <path d="M44.6 80.3948L41.65 81.6686C40.5862 82.1105 39.4138 82.1105 38.35 81.6686L35.4 80.3948C27.9279 77.1498 21.5098 71.4901 16.98 64.1512C12.4502 56.8123 10.0181 48.1337 10 39.2435V23.8463C15.6625 24.7403 21.4378 23.9259 26.7175 21.4891C31.9972 19.0523 36.5858 15.0832 40 10C46.25 20.0801 56.6 24.8433 70 23.8463V39.2435C69.9819 48.1337 67.5498 56.8123 63.02 64.1512C58.4902 71.4901 52.0721 77.1498 44.6 80.3948Z" fill="white"/>
    <path d="M41.4582 81.2069L44.4008 79.9361L41.4582 81.2069ZM41.4582 81.2069C41.4572 81.2073 41.4562 81.2077 41.4551 81.2082M41.4582 81.2069L41.4551 81.2082M41.4551 81.2082C40.5159 81.5973 39.4841 81.5973 38.5449 81.2082C38.5438 81.2077 38.5428 81.2073 38.5418 81.2069L35.5992 79.9361L41.4551 81.2082ZM10.5 39.243C10.518 48.0436 12.9258 56.631 17.4055 63.8886C21.8848 71.1456 28.2258 76.7339 35.5982 79.9357L10.5 39.243ZM10.5 39.243V24.4256C16.0758 25.1925 21.7383 24.3379 26.927 21.9431C32.0747 19.5672 36.5699 15.7615 39.9838 10.9064C46.2986 20.5951 56.4882 25.2065 69.5 24.382V39.2424C69.4821 48.0433 67.0743 56.6308 62.5945 63.8886C58.1152 71.1456 51.7742 76.7339 44.4018 79.9357L10.5 39.243Z" stroke="#001B55" stroke-opacity="0.1" stroke-linecap="round" stroke-linejoin="round"/>
  </g>
  <path d="M43.68 74.7069L41.32 75.7331C40.4689 76.089 39.5311 76.089 38.68 75.7331L36.32 74.7069C30.3423 72.0929 25.2078 67.5337 21.584 61.6218C17.9601 55.7099 16.0145 48.7188 16 41.5572V29.154C20.53 29.8741 25.1502 29.2181 29.374 27.2551C33.5978 25.2921 37.2687 22.0948 40 18C45 26.1201 53.28 29.9571 64 29.154V41.5572C63.9855 48.7188 62.0399 55.7099 58.416 61.6218C54.7922 67.5337 49.6577 72.0929 43.68 74.7069Z" fill="white"/>
  <path d="M43.4797 74.2488L41.1271 75.2718C41.126 75.2722 41.125 75.2727 41.124 75.2731C40.3982 75.5756 39.6018 75.5756 38.876 75.2731C38.875 75.2727 38.874 75.2722 38.8729 75.2718L36.5203 74.2488C36.5201 74.2487 36.5198 74.2486 36.5195 74.2484C30.6419 71.678 25.5841 67.1908 22.0103 61.3605C18.4362 55.5297 16.5144 48.6294 16.5 41.5567V29.7324C20.9436 30.3256 25.4517 29.6294 29.5847 27.7085C33.6769 25.8067 37.2542 22.773 39.9839 18.907C45.0462 26.6337 53.1651 30.3199 63.5 29.6891V41.5562C63.4857 48.6291 61.5639 55.5296 57.9897 61.3605C54.4159 67.1908 49.3581 71.678 43.4805 74.2484C43.4802 74.2486 43.4799 74.2487 43.4797 74.2488Z" stroke="#001B55" stroke-opacity="0.15" stroke-linecap="round" stroke-linejoin="round"/>
  <path fill-rule="evenodd" clip-rule="evenodd" d="M40 56C44.4183 56 48 52.4183 48 48C48 43.5817 44.4183 40 40 40C35.5817 40 32 43.5817 32 48C32 52.4183 35.5817 56 40 56ZM39.8793 51.3069L44.3238 45.9735L42.7873 44.6931L39.0439 49.1853L37.1516 47.2929L35.7373 48.7071L38.404 51.3738L39.1783 52.1481L39.8793 51.3069Z" fill="#001B55"/>
  <defs>
    <filter id="filter0_d" x="0" y="0" width="88" height="100" filterUnits="userSpaceOnUse" color-interpolation-filters="sRGB">
      <feFlood flood-opacity="0" result="BackgroundImageFix"/>
      <feColorMatrix in="SourceAlpha" type="matrix" values="0 0 0 0 0 0 0 0 0 0 0 0 0 0 0 0 0 0 127 0" result="hardAlpha"/>
      <feOffset dx="4" dy="4"/>
      <feGaussianBlur stdDeviation="7"/>
      <feComposite in2="hardAlpha" operator="out"/>
      <feColorMatrix type="matrix" values="0 0 0 0 0.00392157 0 0 0 0 0.109804 0 0 0 0 0.345098 0 0 0 0.25 0"/>
      <feBlend mode="normal" in2="BackgroundImageFix" result="effect1_dropShadow"/>
      <feBlend mode="normal" in="SourceGraphic" in2="effect1_dropShadow" result="shape"/>
    </filter>
  </defs>
</svg>
