<svg width="46" height="47" viewBox="0 0 46 47" fill="none" xmlns="http://www.w3.org/2000/svg">
<g clip-path="url(#clip0_2_116)">
<path d="M42.8878 33.0066C42.9674 32.8738 43.047 32.741 43.0735 32.5817V32.5552H43.1001C43.1531 32.5286 43.2062 32.502 43.2327 32.4489C45.5141 28.466 46.363 24.2972 45.7794 19.9956V19.969H45.8059C45.8589 19.9425 45.912 19.8894 45.912 19.8097C45.5406 14.1274 43.6306 9.48059 40.0759 5.6304C36.1233 1.30226 31.8523 0.107376 29.9689 0.0542699C28.8282 0.0277169 27.8997 0.452565 27.5283 1.11639C27.2896 1.54124 27.3426 2.04575 27.6079 2.41749C27.8201 2.73613 28.3507 3.08133 28.9343 3.45307C30.4198 4.40898 32.3033 5.60385 31.4279 7.54222C30.4994 9.61336 28.165 10.2506 26.3876 10.4365H26.3611V10.4099C26.0958 9.79922 25.9101 9.16196 25.8306 8.49814V8.47158H25.8571L25.9101 8.44503C25.9367 8.44503 25.9367 8.41847 25.9367 8.39192C25.9367 8.36537 25.9367 8.36537 25.9367 8.33881C25.9367 8.33881 25.1143 6.9846 25.1143 6.0287C25.1143 5.76317 25.1674 5.47108 25.2735 5.23211V5.20556C25.3 5.20556 25.3 5.179 25.3 5.15245V5.1259C25.4857 4.75416 25.7775 4.48863 26.1489 4.32931C26.4407 4.27621 26.7325 4.35586 26.9447 4.54173C26.9713 4.54173 26.9978 4.54173 27.0243 4.54173C27.0508 4.54173 27.0508 4.51518 27.0774 4.48863C27.21 3.95757 27.0774 2.73613 26.4407 2.33784C25.9101 1.99265 25.0613 2.44404 24.796 2.57681L24.7695 2.60337L24.7429 2.57681C24.6368 2.44404 24.5042 2.36439 24.345 2.33784C24.0797 2.31129 23.7879 2.39093 23.5757 2.57681C22.8595 3.13442 20.9495 5.36488 20.4985 6.98461C20.4189 7.30325 20.3924 7.62188 20.472 7.94052V7.96708C20.3393 8.79022 20.1271 9.61335 19.8353 10.4099V10.4365H19.8088C17.9519 10.3037 15.5378 9.66646 14.5828 7.54222C13.734 5.6304 15.5909 4.43553 17.0764 3.45307C17.6866 3.05477 18.1906 2.73613 18.4028 2.41749C18.6946 2.04575 18.7212 1.54124 18.5089 1.11639C18.1375 0.452565 17.2091 0.0542796 16.0684 0.0808326C14.1849 0.107386 9.9405 1.32881 5.96135 5.6304C2.40665 9.48059 0.496656 14.1274 0.125269 19.8097C0.125269 19.8628 0.151803 19.9425 0.231386 19.9425H0.257907V19.9956C-0.325702 24.2706 0.523185 28.466 2.80456 32.4489C2.83109 32.502 2.88415 32.5286 2.9372 32.5552H2.96373V32.5817C2.99026 32.741 3.06984 32.8738 3.14943 32.98L3.17595 33.0066V33.0331L3.20248 33.0597C3.22901 33.1128 5.64303 37.4144 9.91398 40.4679C12.0627 42.008 14.5298 43.1764 16.3337 44.0261C17.103 44.3712 17.8192 44.743 18.5355 45.1413C18.615 45.1944 18.7212 45.1944 18.8007 45.1147C18.8803 45.0616 18.9068 44.9554 18.8538 44.8758C18.5355 44.0526 17.6601 42.486 15.4848 41.2911L15.2195 41.1583L15.0869 41.1052L15.1134 41.0256L15.7235 41.238L16.201 41.3973C16.2806 41.4239 16.3602 41.3973 16.4398 41.3442C16.4928 41.2911 16.5194 41.2114 16.4928 41.1318C16.3071 40.5476 15.7235 39.3793 13.8931 38.2641L13.6809 38.1313L13.734 38.0516L14.0258 38.2109C14.3706 38.3968 14.6624 38.5561 14.8746 38.6623C14.9542 38.7155 15.0338 38.7155 15.1134 38.6623C15.193 38.6092 15.2195 38.5296 15.193 38.4499C15.0603 37.7861 14.6094 36.5381 13.1238 35.5291L13.0708 35.5025L13.1238 35.4229C13.4421 35.5822 13.6809 35.715 13.8666 35.7946C13.9462 35.8212 14.0258 35.8212 14.0788 35.7946C14.1319 35.7415 14.1849 35.6884 14.1849 35.6088C14.1584 35.1308 14.0258 33.8828 13.1503 33.0066L12.779 32.6348L13.1769 32.9003C13.3891 33.0331 13.5748 33.1659 13.7074 33.219C13.787 33.2455 13.8401 33.2455 13.9196 33.219C13.9992 33.1924 14.0258 33.1128 14.0258 33.0331C14.0788 32.4755 14.0788 31.0416 13.2299 29.9264L12.9381 29.5281L13.3095 29.8467L13.6544 30.1388L13.787 30.245C13.8401 30.2981 13.9462 30.2982 14.0258 30.2716C14.1053 30.2451 14.1584 30.1654 14.1584 30.0857C14.2115 29.3688 14.1053 28.6253 13.8666 27.9349C13.7605 27.6694 13.6013 27.3508 13.4422 26.979C12.9116 25.8638 12.2219 24.3237 12.0892 22.8102L12.0627 22.5181H12.1688C12.1954 22.6774 12.2219 22.8102 12.2219 22.943C12.2484 23.0226 12.3015 23.0757 12.3545 23.1023C12.4341 23.1288 12.5137 23.1023 12.5667 23.0492C13.0708 22.5978 13.4687 22.0667 13.7074 21.4294C13.8135 21.0046 13.8666 20.5798 13.8931 20.1284C13.9197 19.3583 14.0523 18.5883 14.3176 17.8713V17.8448C14.4237 17.4996 15.1134 16.7827 15.1134 16.7827C15.3521 16.5171 15.5909 16.2516 15.8031 15.9861L15.9092 15.8533L15.8827 16.0392C15.7501 17.1013 15.9888 18.6414 16.4133 19.3052C16.4133 19.3318 16.4398 19.3318 16.4663 19.3318C16.4928 19.3318 16.5194 19.3318 16.5194 19.3052C16.8377 19.0131 17.103 18.6414 17.2621 18.2165L17.3417 18.0307L17.3682 18.2165C17.3682 18.2962 17.3948 18.3759 17.3948 18.4821C17.0234 19.6238 17.2887 21.8808 17.8988 22.8102C17.9253 22.8368 17.9253 22.8368 17.9519 22.8368C17.9784 22.8368 18.0049 22.8368 18.0049 22.8102C18.0049 22.8102 18.111 22.6509 18.2702 22.4385L18.3232 22.3323L18.3498 22.4385C18.4293 22.7837 18.562 23.1023 18.7212 23.4209L18.7477 23.474L18.6946 23.5006C17.4743 23.8192 16.2806 24.2175 15.1134 24.6689C15.0338 24.6955 15.0073 24.7751 15.0073 24.8548V25.7841C15.0073 25.8372 15.0338 25.9169 15.0869 25.9435C15.1399 25.97 15.2195 25.97 15.2726 25.9435C16.0949 25.5983 16.9438 25.3327 17.8192 25.1203L17.9253 25.0938L17.8723 25.2C17.5009 25.8638 17.2091 26.5807 16.9969 27.2977C16.6785 28.3067 16.3337 29.3423 15.6705 30.1388C15.6174 30.2185 15.5909 30.3247 15.6439 30.4044C15.697 30.484 15.7766 30.5371 15.8827 30.5106C16.5194 30.4309 17.6866 30.1654 18.4028 29.475L18.562 29.3423L18.4824 29.5547C18.4293 29.6874 18.3763 29.7936 18.3232 29.953C17.9253 31.0947 17.3682 32.1834 16.6255 33.1393C16.5724 33.219 16.5459 33.3252 16.5989 33.4049C16.652 33.4845 16.7316 33.5376 16.8112 33.5376C17.5009 33.5111 18.7742 33.3252 19.6231 32.4755L19.8088 32.2896L19.7027 32.5286C19.1721 33.75 18.5885 34.9715 18.0049 35.715C17.9519 35.7946 17.9253 35.9008 17.9784 35.9805C18.0049 36.0602 18.111 36.1133 18.1906 36.1133H18.2437C19.1456 36.1398 20.021 35.8477 20.7107 35.3167L20.7903 35.2636V39.4589C20.8168 42.0877 21.5596 44.6633 22.9125 46.9203H22.939V46.9469H22.9656H22.9921V46.9203H23.0186C24.3715 44.6633 25.1143 42.0877 25.1408 39.4589V35.3432L25.2204 35.3963C25.9367 35.9274 26.8121 36.2195 27.6875 36.1929H27.7406C27.8201 36.1929 27.8997 36.1398 27.9528 36.0602C28.0058 35.9805 27.9793 35.8743 27.9262 35.7946C27.3426 35.0511 26.759 33.8297 26.2285 32.6083L26.1224 32.3693L26.3081 32.5552C27.1569 33.4049 28.4303 33.5907 29.12 33.6173C29.1996 33.6173 29.2792 33.5642 29.3322 33.4845C29.3853 33.4049 29.3853 33.2986 29.3057 33.219C28.5629 32.2631 28.0058 31.1744 27.6079 30.0326C27.5549 29.8999 27.5018 29.7671 27.4487 29.6343L27.3692 29.4219L27.5283 29.5547C28.2711 30.2451 29.4383 30.484 30.0485 30.5902C30.1546 30.6168 30.2342 30.5637 30.2872 30.484C30.3403 30.4044 30.3137 30.2982 30.2607 30.2185C29.5975 29.4219 29.2526 28.3863 28.9343 27.3773C28.7221 26.6338 28.4303 25.9435 28.0589 25.2796L28.0058 25.1734L28.1385 25.2C29.0139 25.3858 29.8628 25.6779 30.6851 26.0231C30.7912 26.0762 30.8973 26.0231 30.9239 25.9169C30.9239 25.8904 30.9504 25.8638 30.9504 25.8372V24.9344C30.9504 24.8548 30.8973 24.8017 30.8443 24.7486C29.6771 24.2972 28.4833 23.8989 27.2631 23.5802L27.21 23.5537L27.2365 23.5006C27.3957 23.182 27.5283 22.8633 27.6079 22.5181L27.6344 22.4119L27.6875 22.5181C27.8201 22.7305 27.9528 22.8899 27.9528 22.8899C27.9793 22.9164 27.9793 22.9164 28.0058 22.9164C28.0324 22.9164 28.0589 22.8899 28.0589 22.8899C28.669 21.9605 28.9078 19.7035 28.5629 18.5617V18.5352C28.5629 18.4555 28.5894 18.3493 28.5894 18.2696L28.616 18.0838L28.6955 18.2696C28.8547 18.6679 29.12 19.0397 29.4383 19.3583C29.4648 19.3583 29.4649 19.3849 29.4914 19.3849C29.5179 19.3849 29.5179 19.3583 29.5444 19.3583C29.9689 18.6679 30.2342 17.1544 30.075 16.0923L30.0485 15.9064L30.1546 16.0392C30.3668 16.3047 30.6055 16.5702 30.8443 16.8358V16.8623C30.8443 16.8623 31.534 17.5527 31.6401 17.9245V17.951C31.8789 18.6679 32.038 19.438 32.0646 20.208C32.0911 20.6329 32.1441 21.0843 32.2503 21.5091C32.489 22.1198 32.8869 22.6774 33.3909 23.1288C33.4705 23.2085 33.6297 23.2085 33.7093 23.1023C33.7358 23.0757 33.7623 23.0226 33.7623 22.9961C33.7889 22.8633 33.8154 22.7306 33.8154 22.5712H33.9215L33.895 22.8633C33.7623 24.4034 33.0461 25.9169 32.5421 27.0321C32.3829 27.4039 32.2237 27.696 32.1176 27.988C31.8789 28.6784 31.7728 29.3954 31.8258 30.1388C31.8258 30.2716 31.9319 30.3513 32.0646 30.3513C32.1176 30.3513 32.1707 30.3247 32.1972 30.2982L32.3298 30.1919L32.6747 29.8999L33.0461 29.5812L32.7808 30.0061C31.9319 31.1213 31.9319 32.5552 31.985 33.1128C31.985 33.1924 32.038 33.2455 32.0911 33.2986C32.1707 33.3252 32.2503 33.3252 32.3033 33.2986C32.4359 33.219 32.6216 33.1128 32.8339 32.98L33.2318 32.7145L32.8604 33.0862C31.985 33.9625 31.8523 35.1839 31.8258 35.6884C31.8258 35.8212 31.9054 35.9008 32.038 35.9274C32.0646 35.9274 32.1176 35.9274 32.1441 35.9008C32.3033 35.8212 32.5686 35.6884 32.8604 35.5291L32.9134 35.6088L32.8604 35.6353C31.3748 36.6709 30.9239 37.9189 30.7912 38.5827C30.7647 38.6623 30.8178 38.7686 30.8708 38.7951C30.9504 38.8482 31.03 38.8482 31.1096 38.7951C31.3218 38.6623 31.6136 38.503 31.9584 38.3172L32.2503 38.1578L32.3033 38.2375L32.0911 38.3703C30.2607 39.4855 29.6771 40.6273 29.4914 41.238C29.4649 41.3177 29.4914 41.3973 29.5444 41.477C29.5975 41.5301 29.7036 41.5566 29.7567 41.5301L30.2341 41.3708L30.8443 41.1583L30.8973 41.238L30.7647 41.3176L30.4994 41.4504C28.3242 42.6453 27.4488 44.2119 27.1304 45.0351C27.1039 45.1147 27.1304 45.2209 27.1835 45.2741C27.2631 45.3272 27.3692 45.3537 27.4487 45.2741C28.165 44.8492 28.9078 44.4775 29.6505 44.1588C31.4544 43.3091 33.9215 42.1408 36.0702 40.6007C40.3412 37.5471 42.7552 33.219 42.7817 33.1924L42.8083 33.1659L42.8878 33.0066Z" fill="url(#paint0_radial_2_116)"/>
<path fill-rule="evenodd" clip-rule="evenodd" d="M45.8059 19.9956C45.8855 19.969 45.9385 19.8894 45.9385 19.8097C45.5671 14.1274 43.6571 9.45404 40.1024 5.60385C36.1233 1.27571 31.8523 0.0808223 29.9423 0.0542693C28.7751 0.0277163 27.8201 0.452574 27.4487 1.14295C27.21 1.5678 27.2631 2.09885 27.5549 2.49715C27.7657 2.81377 28.2909 3.15662 28.8962 3.55174L28.9078 3.55927L28.9251 3.57044C30.4075 4.52428 32.2205 5.69086 31.4014 7.56878C30.4994 9.61337 28.1915 10.2506 26.3876 10.4365C26.1224 9.82579 25.9367 9.1885 25.8571 8.55123C25.8836 8.55123 25.9101 8.52468 25.9101 8.52468C25.9173 8.51757 25.9244 8.51236 25.931 8.50753C25.949 8.49432 25.9632 8.4839 25.9632 8.44503C25.9897 8.41848 25.9897 8.36536 25.9632 8.33881C25.9632 8.33881 25.1408 6.98461 25.1408 6.05526C25.1408 5.78973 25.1939 5.52419 25.3 5.28521C25.3133 5.27194 25.3199 5.25866 25.3265 5.24539C25.3332 5.23211 25.3398 5.21884 25.3531 5.20556C25.5122 4.86037 25.804 4.59483 26.1754 4.43552C26.4407 4.40896 26.706 4.46208 26.9182 4.64795C26.9712 4.70106 27.0508 4.6745 27.0774 4.62139C27.0774 4.62139 27.1039 4.59483 27.1039 4.56828C27.2365 4.03722 27.1039 2.76268 26.4672 2.36438C25.9367 2.0192 25.0613 2.44405 24.7695 2.60337C24.6633 2.4706 24.5042 2.39094 24.345 2.33784C24.0532 2.31128 23.7614 2.39093 23.5492 2.57681C22.8064 3.13442 20.8964 5.39143 20.4454 7.01116C20.3659 7.3298 20.3393 7.64844 20.4189 7.96708C20.2598 8.79022 20.0475 9.61336 19.7557 10.3834C17.8988 10.2506 15.5113 9.61336 14.5828 7.51567C13.743 5.65051 15.5516 4.48706 17.0288 3.5368L17.0764 3.50616C17.1422 3.46326 17.2069 3.42129 17.2705 3.3801C17.7972 3.03892 18.24 2.75205 18.4293 2.44404C18.7211 2.04574 18.7742 1.51469 18.5355 1.08984C18.1641 0.399465 17.2091 -0.0253768 16.0419 0.00117625C14.1584 0.0542823 9.88745 1.24917 5.9083 5.57731C2.35359 9.45405 0.417073 14.1008 0.0456864 19.7832C0.0456864 19.8628 0.0987417 19.9425 0.178325 19.969C-0.405284 24.2706 0.443603 28.466 2.72498 32.4489C2.75151 32.502 2.80456 32.5552 2.88415 32.5817C2.91068 32.741 2.99025 32.8738 3.06984 33.0066C3.06984 33.0066 3.06984 33.0331 3.09637 33.0331L3.1229 33.0862C3.14942 33.1393 5.56344 37.4409 9.86092 40.5211C12.0097 42.0611 14.4767 43.2295 16.2806 44.0792C17.0234 44.4244 17.7662 44.7961 18.4824 45.1944C18.5355 45.2209 18.5885 45.2475 18.6416 45.2475C18.6946 45.2475 18.7742 45.2209 18.8007 45.1944C18.8803 45.1147 18.9334 45.0085 18.8803 44.8758C18.562 44.0526 17.6866 42.4594 15.4848 41.2645L15.0869 41.0521C15.2991 41.1318 15.5113 41.2114 15.697 41.2645L16.1745 41.4239C16.2541 41.4504 16.3602 41.4239 16.4398 41.3708C16.5194 41.2911 16.5459 41.2114 16.5194 41.1052C16.3337 40.5211 15.7501 39.3527 13.9196 38.2109L13.7074 38.0782L13.9992 38.2375L14.1714 38.3304L14.1718 38.3306L14.1725 38.331L14.1731 38.3313L14.1736 38.3316C14.4429 38.477 14.6727 38.6011 14.8481 38.6889C14.9012 38.7154 14.9277 38.7155 14.9808 38.7155C15.1399 38.7155 15.246 38.6092 15.246 38.4499V38.3968C15.1138 37.7353 14.6655 36.4672 13.1659 35.4336C13.4305 35.5763 13.669 35.6947 13.8401 35.7681C13.8666 35.7946 13.9196 35.7946 13.9462 35.7946C13.9992 35.7946 14.0523 35.7681 14.1053 35.7415C14.1849 35.6884 14.238 35.6087 14.238 35.5025C14.2115 34.998 14.0788 33.7766 13.1769 32.8738L13.1503 32.8472C13.2983 32.9398 13.4334 33.0195 13.5466 33.0862L13.547 33.0865C13.596 33.1154 13.6409 33.1418 13.6809 33.1659C13.734 33.1924 13.7605 33.1924 13.8135 33.1924C13.8666 33.1924 13.8931 33.1924 13.9462 33.1659C14.0258 33.1128 14.0788 33.0331 14.1053 32.9535C14.1584 32.3693 14.1584 30.9354 13.3095 29.8202L13.6544 30.1123L13.787 30.2185C13.8401 30.2716 13.8931 30.2716 13.9462 30.2716C13.9727 30.2716 14.0258 30.2716 14.0523 30.245C14.1584 30.1919 14.2114 30.1123 14.2114 30.0061C14.2645 29.2626 14.1584 28.5457 13.8931 27.8553C13.8357 27.7115 13.7627 27.5522 13.6826 27.3773L13.6825 27.3773C13.6147 27.2291 13.5417 27.0698 13.4687 26.8994L13.417 26.7851C12.917 25.6803 12.2439 24.193 12.1158 22.7305L12.0892 22.4385L12.1008 22.5066C12.1229 22.6365 12.1423 22.7499 12.1423 22.8633C12.1688 22.9695 12.2219 23.0492 12.328 23.0757H12.4076C12.4872 23.0757 12.5402 23.0492 12.5933 22.9961C13.0973 22.5447 13.4952 21.9871 13.734 21.3498C13.8401 20.9249 13.9196 20.4735 13.9196 20.0487C13.9462 19.2787 14.0788 18.5352 14.3441 17.7917L14.3706 17.7651C14.4502 17.473 14.9542 16.9154 15.1664 16.7296L15.1665 16.7295C15.4052 16.464 15.644 16.1985 15.8562 15.933C15.7387 16.8503 15.9126 18.1634 16.2673 18.9497C16.2968 19.0193 16.3278 19.0849 16.3602 19.1459L16.3638 19.1421C16.3799 19.171 16.3965 19.1988 16.4132 19.2255L16.4133 19.2256C16.4398 19.2521 16.4663 19.2787 16.4928 19.2787H16.4929C16.5194 19.2787 16.5724 19.2787 16.5989 19.2521C16.9173 18.9335 17.1825 18.5617 17.3682 18.1634C17.3682 18.2004 17.374 18.2374 17.3801 18.277L17.3801 18.277V18.277V18.2771C17.3871 18.3228 17.3948 18.3721 17.3948 18.429C17.0234 19.5707 17.2887 21.8543 17.8988 22.8102C17.9253 22.8368 17.9519 22.8633 18.0049 22.8633C18.0314 22.8633 18.0845 22.8368 18.111 22.8102C18.111 22.8102 18.2437 22.6509 18.3763 22.4385C18.4559 22.7837 18.5885 23.1288 18.7477 23.4475C17.5274 23.7661 16.3337 24.1644 15.1664 24.6158C15.0869 24.6424 15.0073 24.7486 15.0073 24.8282V25.7576C15.0073 25.8373 15.0603 25.9169 15.1134 25.97C15.1399 25.9966 15.1929 25.9966 15.246 25.9966H15.246H15.246C15.2726 25.9966 15.3256 25.9966 15.3521 25.97C16.1745 25.6248 17.0234 25.3593 17.8988 25.1469C17.5274 25.8107 17.2356 26.5276 17.0234 27.2711C16.705 28.2801 16.3602 29.2891 15.697 30.0857C15.6174 30.1919 15.6174 30.3247 15.6705 30.4309C15.7235 30.5106 15.8031 30.5637 15.9092 30.5637H15.9623C16.6255 30.4575 17.7927 30.1919 18.5089 29.5281L18.3763 29.9264C17.9784 31.0682 17.4213 32.1303 16.6785 33.1128C16.5989 33.1924 16.5989 33.3252 16.652 33.4314C16.7051 33.5376 16.8112 33.5907 16.9173 33.5907H16.9438C17.6335 33.5642 18.9068 33.3783 19.7823 32.502L19.7485 32.5776C19.3011 33.579 18.7061 34.9109 18.111 35.6619C18.0314 35.7415 18.0314 35.8743 18.0845 35.9805C18.1375 36.0867 18.2437 36.1398 18.3498 36.1398H18.4028C19.3048 36.1664 20.1802 35.8743 20.9229 35.3432V39.4324C20.9495 42.0877 21.6923 44.6633 23.0452 46.9469L23.0717 46.9734C23.0849 46.9734 23.0916 46.9801 23.0982 46.9867C23.1048 46.9934 23.1115 47 23.1247 47C23.1513 47 23.1778 47 23.1778 46.9734L23.2043 46.9469C24.5572 44.6633 25.3 42.0877 25.3265 39.4324V35.3167C26.0428 35.8477 26.9447 36.1398 27.8467 36.1133H27.8997C28.0058 36.1133 28.1119 36.0602 28.165 35.9539C28.218 35.8477 28.1915 35.7415 28.1385 35.6353C27.5283 34.8653 26.8917 33.4845 26.4672 32.4755C27.3426 33.3252 28.616 33.5111 29.3057 33.5642C29.4118 33.5642 29.5179 33.5111 29.571 33.4049C29.624 33.2986 29.624 33.1924 29.5444 33.0862C28.8282 32.1303 28.2446 31.0682 27.8467 29.9264L27.714 29.5281C28.4568 30.2185 29.5975 30.484 30.2607 30.5637H30.3137C30.4198 30.5637 30.4994 30.5106 30.5525 30.4044C30.6055 30.2982 30.6055 30.1654 30.526 30.0592C29.8628 29.2626 29.5179 28.2536 29.1996 27.2446C28.9873 26.5011 28.6955 25.7841 28.3242 25.1203C29.1996 25.3062 30.0485 25.5983 30.8708 25.9435C30.8818 25.9435 30.8928 25.948 30.9056 25.9533L30.9057 25.9534C30.9239 25.9609 30.9458 25.97 30.9769 25.97C31.03 25.97 31.0565 25.97 31.1096 25.9435C31.1891 25.8903 31.2157 25.8107 31.2157 25.731V24.8282C31.2157 24.722 31.1626 24.6424 31.0565 24.6158C29.8893 24.1644 28.6955 23.7661 27.4753 23.4475C27.6344 23.1288 27.7671 22.7837 27.8467 22.4385C27.9793 22.6509 28.0854 22.7836 28.1119 22.8102C28.1385 22.8368 28.165 22.8633 28.2181 22.8633C28.2446 22.8633 28.2976 22.8368 28.3242 22.8102C28.9343 21.8543 29.1996 19.5973 28.8282 18.429C28.8282 18.3891 28.8348 18.3427 28.8414 18.2962C28.8466 18.2601 28.8518 18.224 28.8538 18.191C29.0006 18.5344 29.2112 18.8485 29.4648 19.1193L29.47 19.1095C29.5189 19.1589 29.5702 19.2065 29.624 19.2521C29.6505 19.2787 29.6771 19.2787 29.7301 19.2787H29.7301C29.7567 19.2787 29.7832 19.2521 29.8097 19.2255C30.2428 18.5371 30.4801 17.0896 30.3808 16.0586C30.6433 16.3876 30.926 16.6997 31.2422 16.9951C31.2999 17.0437 31.3597 17.0892 31.4213 17.1315C31.6059 17.3509 31.7925 17.6003 31.8523 17.7651C31.8523 17.7917 31.8523 17.7917 31.8789 17.7917C32.1176 18.5086 32.2503 19.2787 32.3033 20.0487C32.3298 20.5001 32.3829 20.9249 32.489 21.3498C32.4949 21.3655 32.5009 21.3812 32.507 21.3969L32.5155 21.4294C32.7274 21.9478 33.0437 22.4244 33.446 22.8221C33.5055 22.8817 33.5668 22.9397 33.6297 22.9961C33.6827 23.0492 33.7358 23.0757 33.8154 23.0757H33.895C34.0011 23.0492 34.0541 22.9695 34.0807 22.8633L34.0807 22.8632C34.0904 22.8147 34.1001 22.7661 34.1085 22.7162L34.1072 22.7305C33.979 24.193 33.3059 25.6803 32.806 26.7851L32.7543 26.8994C32.6813 27.0699 32.6083 27.2292 32.5404 27.3773C32.4603 27.5522 32.3873 27.7115 32.3298 27.8553C32.0911 28.5457 31.985 29.2891 32.0115 30.0061C32.0115 30.1123 32.0911 30.1919 32.1707 30.245C32.1972 30.2716 32.2503 30.2716 32.2768 30.2716C32.3298 30.2716 32.4094 30.2451 32.4625 30.2185L32.5951 30.1123L32.94 29.8202C32.0646 30.962 32.0911 32.3958 32.1441 32.9535C32.1441 33.0331 32.1972 33.1393 32.2768 33.1659C32.3033 33.1924 32.3564 33.1924 32.4094 33.1924C32.4405 33.1924 32.4716 33.1833 32.4973 33.1758C32.5155 33.1704 32.5311 33.1659 32.5421 33.1659C32.5822 33.1418 32.6272 33.1152 32.6764 33.0862L32.6767 33.086C32.7898 33.0193 32.9248 32.9397 33.0726 32.8472L33.0461 32.8738C32.1441 33.75 32.0115 34.998 32.0115 35.5025C32.0115 35.6087 32.0646 35.6884 32.1176 35.7415C32.1707 35.7681 32.2237 35.7946 32.2768 35.7946C32.3298 35.7946 32.3564 35.7946 32.3829 35.7681C32.5013 35.7173 32.6412 35.6449 32.8096 35.5578L32.8107 35.5573C32.891 35.5158 32.9778 35.4709 33.0717 35.4234C32.0111 36.1138 31.2687 37.1757 30.9769 38.3968C30.9504 38.5296 31.03 38.6889 31.1891 38.7155H31.2422C31.2953 38.7155 31.3483 38.7154 31.3748 38.6889C31.5871 38.5561 31.8789 38.3968 32.2237 38.2375L32.5421 38.0782L32.3298 38.2109C30.4994 39.3262 29.9158 40.4945 29.7301 41.1052C29.7036 41.2114 29.7301 41.2911 29.8097 41.3708C29.8628 41.4239 29.9158 41.4504 29.9954 41.4504C30.0219 41.4504 30.0485 41.4504 30.1015 41.4239L30.579 41.238C30.686 41.2074 30.793 41.168 30.9101 41.1249C30.9963 41.0931 31.0879 41.0593 31.1891 41.0256L30.7912 41.238C28.5894 42.4329 27.714 43.9995 27.3957 44.8492C27.3771 44.8864 27.3715 44.9268 27.3756 44.966L27.3692 44.982V45.0085H27.3838C27.3996 45.0644 27.4338 45.1136 27.4753 45.1413C27.5283 45.1678 27.5814 45.1944 27.6344 45.1944C27.6875 45.1944 27.7406 45.1678 27.7936 45.1413C28.5099 44.7164 29.2526 44.3447 29.9954 44.0261C31.7993 43.1764 34.2664 42.008 36.4151 40.4679C40.7126 37.3878 43.1266 33.0862 43.1531 33.0331L43.1796 32.98C43.1796 32.98 43.2062 32.98 43.2062 32.9535C43.2858 32.8207 43.3653 32.6879 43.3919 32.5286C43.3992 32.525 43.4069 32.5213 43.415 32.5175C43.4658 32.4938 43.5282 32.4646 43.551 32.3958C45.5671 28.4926 46.416 24.2972 45.8059 19.9956ZM27.3838 45.0085H27.3957C28.1119 44.5837 28.8547 44.2119 29.624 43.8667L29.7018 43.8301C31.4976 42.9843 33.8992 41.8532 36.0172 40.3352C39.7364 37.6726 42.0377 34.0714 42.6026 33.1874L42.6035 33.1861C42.6328 33.1402 42.6574 33.1016 42.6773 33.071L42.7021 33.0331C42.6491 32.8738 42.596 32.6879 42.5695 32.5286C41.1901 34.5997 39.0679 37.1488 37.6088 38.4234C37.5823 38.4499 37.5558 38.4499 37.5293 38.4499C37.5027 38.4499 37.4762 38.4234 37.4497 38.3968L37.4497 38.3968C37.3966 38.3437 37.3966 38.2906 37.4497 38.2375C38.9087 36.963 41.1635 34.2545 42.4899 32.1834C42.4103 31.6789 42.3573 31.1478 42.3308 30.6433C41.9594 31.4399 41.0574 33.0862 39.1474 35.2901C37.9802 36.6709 36.6273 37.8923 35.1418 38.9279L35.0091 39.0075C33.895 39.751 32.7278 40.4149 31.534 41.0256L30.6586 41.5035C28.5505 42.6377 27.6988 44.1649 27.3756 44.966C27.3771 44.9804 27.3798 44.9947 27.3838 45.0085ZM33.446 22.8221C33.0406 22.416 32.7167 21.9355 32.507 21.3969C32.4065 21.008 32.3556 20.5947 32.3298 20.1815C32.3033 19.3583 32.1441 18.5617 31.8789 17.7917L31.9886 17.8164L31.9887 17.8164L31.9887 17.8164L31.9887 17.8164L31.9888 17.8164L31.9888 17.8164L31.989 17.8165L31.9891 17.8165C32.1846 17.8607 32.3672 17.9021 32.5686 17.9245C32.7278 18.6945 32.8339 19.4911 32.8869 20.2611C32.8869 20.3142 32.94 20.3939 33.0196 20.3939C33.0726 20.3939 33.1257 20.3408 33.1257 20.2611C33.0726 19.4911 32.9665 18.6945 32.8073 17.9245C33.0196 17.951 33.2318 17.951 33.444 17.9245C33.6562 18.8273 33.7889 19.7566 33.8154 20.686V20.7125C33.8684 21.4826 33.7889 22.1995 33.6562 22.943C33.6297 22.9695 33.6297 22.9695 33.6032 22.9695C33.5494 22.9217 33.497 22.8725 33.446 22.8221ZM31.4213 17.1315C31.2788 16.9621 31.1374 16.8106 31.0565 16.7296L31.0565 16.7295C30.8177 16.464 30.579 16.1985 30.3668 15.933C30.3721 15.9741 30.3767 16.016 30.3808 16.0586C30.313 15.9736 30.2465 15.8875 30.1811 15.8002C29.8362 15.1895 29.3853 14.685 28.9078 14.2336C28.616 13.9681 28.3507 13.7291 28.0589 13.5432C28.0058 13.5167 27.9262 13.5167 27.8997 13.5698C27.8732 13.6229 27.8732 13.7025 27.9262 13.7291C28.2181 13.9149 28.4833 14.1539 28.7221 14.3929C28.8547 14.924 28.8812 15.4816 28.8017 16.0392C28.4568 15.8268 27.6344 15.2692 27.3692 14.4726C27.3426 14.4195 27.2896 14.3663 27.21 14.3929C27.1569 14.4194 27.1039 14.4726 27.1304 14.5257C27.1304 14.5257 27.4222 15.8799 27.0243 16.7561C26.4938 16.172 26.1224 15.4816 25.9367 14.7115C25.9101 14.6584 25.8571 14.6053 25.7775 14.6319C25.7244 14.6584 25.6979 14.685 25.6979 14.7381C25.751 15.5081 25.6449 16.2782 25.3531 17.0216C25.0878 16.6234 24.849 16.1719 24.6633 15.7205C24.6368 15.6674 24.5838 15.6143 24.5307 15.6409C24.4776 15.6674 24.4246 15.7205 24.4511 15.7737C24.5404 16.1757 25.0427 16.9724 25.2157 17.2469L25.2158 17.2471C25.2484 17.2987 25.2693 17.3319 25.2735 17.3403C25.3 17.3668 25.3265 17.3934 25.3796 17.3934C25.4326 17.3934 25.4592 17.3668 25.4857 17.3403C25.751 16.7827 25.8836 16.1454 25.9101 15.5347C26.1489 16.0923 26.4937 16.6233 26.9447 17.0482C26.9712 17.0747 26.9978 17.0748 27.0508 17.0748C27.0774 17.0748 27.1304 17.0482 27.1304 17.0216C27.4487 16.464 27.4753 15.694 27.4222 15.1364C27.7936 15.6143 28.2446 16.0126 28.7751 16.3047C28.8017 16.3313 28.8547 16.3313 28.8812 16.3047C28.9078 16.2782 28.9343 16.2516 28.9343 16.2251C29.0139 15.7206 29.0404 15.1895 28.9608 14.685C29.2075 14.9319 29.4224 15.1948 29.6301 15.449C29.6904 15.5227 29.75 15.5958 29.8097 15.6675C30.1004 16.5139 29.9172 18.2562 29.47 19.1095C29.2059 18.8426 29.0114 18.5219 28.8547 18.1634C28.8547 18.1723 28.8544 18.1815 28.8538 18.191C28.7703 17.9958 28.7075 17.791 28.669 17.5793C28.669 17.5261 28.5894 17.4731 28.5364 17.4731C28.4833 17.4731 28.4303 17.5262 28.4303 17.6058L28.4304 17.6114C28.4326 17.7212 28.4649 19.3307 27.7936 20.2611C27.3692 19.7566 27.0774 19.1459 26.9447 18.5086C26.9447 18.4555 26.8651 18.4024 26.8121 18.4024C26.759 18.4024 26.706 18.4555 26.706 18.5086C26.706 18.5352 26.6794 19.9159 26.0693 20.7922C25.7245 20.208 25.4592 19.5973 25.2735 18.96C25.2735 18.9069 25.1939 18.8538 25.1408 18.8538C25.0878 18.8538 25.0613 18.9069 25.0347 18.96C25.0347 18.9866 24.9286 20.3408 24.5042 20.9249C24.4777 20.9781 24.4776 21.0577 24.5307 21.0843C24.544 21.0843 24.5572 21.0909 24.5705 21.0975C24.5838 21.1042 24.597 21.1108 24.6103 21.1108C24.6368 21.1108 24.6899 21.0843 24.7164 21.0577C24.9817 20.5798 25.1408 20.0752 25.1939 19.5442C25.4061 20.0752 25.6449 20.5798 25.9632 21.0577C25.9897 21.0843 26.0163 21.1108 26.0693 21.1108C26.0958 21.1108 26.1489 21.1108 26.1754 21.0577C26.6264 20.5001 26.8121 19.677 26.9182 19.1193C27.1039 19.6238 27.3957 20.0752 27.7405 20.5001C27.7671 20.5266 27.7936 20.5532 27.8201 20.5266C27.8467 20.5266 27.8997 20.5001 27.8997 20.4735C28.218 20.0752 28.4037 19.5973 28.5098 19.1193C28.669 20.2346 28.4037 21.8012 28.0058 22.5978C27.714 22.1995 27.4753 21.7481 27.3161 21.2436C27.3161 21.1905 27.2631 21.1639 27.21 21.1639C27.1569 21.1639 27.1039 21.1905 27.1039 21.217C26.9447 21.5357 26.4407 22.4119 26.0163 22.6509C25.7244 22.2791 25.5122 21.8543 25.4061 21.3763C25.4061 21.3232 25.3265 21.2701 25.2735 21.2701C25.2204 21.2701 25.1939 21.2967 25.1674 21.3498C25.0878 21.5622 24.8225 22.1729 24.5572 22.3323C24.5042 22.3588 24.4777 22.4385 24.5042 22.4916C24.5307 22.5447 24.6103 22.5712 24.6633 22.5447H24.6899C24.9286 22.3322 25.1143 22.0667 25.247 21.7746C25.4061 22.1729 25.6183 22.5447 25.8836 22.8899C25.9101 22.9164 25.9367 22.943 25.9632 22.943H26.0163C26.4672 22.7571 26.9447 22.0136 27.1569 21.6153C27.2365 21.8277 27.3426 22.0402 27.4753 22.2526C27.3957 22.6774 27.2631 23.1023 27.0508 23.474C26.0693 23.2085 25.0347 23.0226 24.0267 22.8899V15.5612C24.6633 14.9771 24.7164 13.9681 24.1063 13.3042C23.5227 12.667 22.5146 12.6139 21.8514 13.2246C21.2148 13.8087 21.1617 14.8178 21.7718 15.4816L21.8514 15.5612V22.8899C20.8434 23.0226 19.8088 23.2085 18.8273 23.474C18.615 23.1023 18.4824 22.6774 18.4028 22.2526C18.5355 22.0402 18.6416 21.8277 18.7211 21.6153C18.9334 22.0136 19.4109 22.7571 19.8618 22.943H19.9149H19.9149C19.9414 22.943 19.968 22.943 19.9945 22.9164C20.2598 22.5712 20.472 22.1995 20.6311 21.8012C20.7638 22.0933 20.9495 22.3588 21.1882 22.5712C21.2413 22.5978 21.3209 22.5978 21.3474 22.5447C21.3739 22.4916 21.3739 22.4119 21.3209 22.3854C21.0556 22.1995 20.7903 21.6153 20.7107 21.4029C20.6842 21.3498 20.6311 21.3232 20.5781 21.3232C20.525 21.3232 20.472 21.3763 20.472 21.4294C20.3659 21.8808 20.1536 22.3323 19.8353 22.704C19.4109 22.465 18.9068 21.5888 18.7477 21.2701C18.7212 21.217 18.6681 21.1905 18.6416 21.217C18.601 21.217 18.576 21.248 18.5546 21.2745L18.5546 21.2745C18.548 21.2827 18.5417 21.2904 18.5355 21.2967C18.3763 21.7746 18.1375 22.226 17.8457 22.6509C17.4478 21.8809 17.1826 20.3142 17.3417 19.1724C17.4478 19.6769 17.66 20.1284 17.9518 20.5266L17.9519 20.5267C17.9784 20.5532 18.0049 20.5798 18.0314 20.5798C18.058 20.5798 18.111 20.5532 18.111 20.5266C18.4559 20.1284 18.7477 19.6504 18.9334 19.1459C19.013 19.7035 19.1986 20.5266 19.6761 21.0843C19.7027 21.1108 19.7292 21.1374 19.7823 21.1374C19.8088 21.1374 19.8618 21.1108 19.8884 21.0843C20.1802 20.6063 20.4455 20.1018 20.6577 19.5707C20.7107 20.1018 20.8964 20.6063 21.1352 21.0843C21.1617 21.1108 21.1882 21.1374 21.2413 21.1374H21.2413C21.2678 21.1374 21.2943 21.1374 21.2943 21.1108C21.3474 21.0843 21.3739 21.0046 21.3209 20.9515C21.0125 20.4988 20.8794 19.5678 20.8227 19.1716C20.8063 19.0565 20.7963 18.9866 20.7903 18.9866C20.7903 18.9335 20.7372 18.8804 20.6842 18.8804C20.6311 18.8804 20.5781 18.9069 20.5516 18.9866C20.3659 19.6238 20.1006 20.2611 19.7557 20.8187C19.1721 19.969 19.1191 18.5617 19.1191 18.5352C19.1191 18.4821 19.066 18.429 18.9864 18.429C18.9334 18.429 18.8803 18.4821 18.8803 18.5352C18.7212 19.1724 18.4293 19.7566 18.0314 20.2877C17.3601 19.3573 17.3925 17.7477 17.3947 17.638L17.3948 17.6324C17.3948 17.5793 17.3417 17.5262 17.2887 17.4996C17.2356 17.4996 17.1825 17.5262 17.156 17.6058C17.0502 18.1882 16.7598 18.7179 16.3638 19.1421C16.3303 19.0823 16.2981 19.018 16.2673 18.9497C15.885 18.0493 15.7445 16.4827 16.0153 15.694C16.2541 15.3754 16.5459 15.0567 16.8642 14.7115C16.8112 15.216 16.8112 15.7471 16.8907 16.2516C16.8907 16.2782 16.9173 16.3313 16.9438 16.3313C16.9703 16.3578 17.0234 16.3578 17.0499 16.3313C17.5805 16.0392 18.058 15.6409 18.4293 15.1629C18.4028 15.694 18.4028 16.464 18.7211 17.0482C18.7477 17.0747 18.7742 17.1013 18.8007 17.1013H18.8008C18.8273 17.1013 18.8803 17.1013 18.9068 17.0748C19.3313 16.6499 19.6761 16.1188 19.9414 15.5612C19.968 16.1985 20.1006 16.8092 20.3659 17.3668C20.3924 17.3934 20.4189 17.4199 20.472 17.4199C20.4985 17.4199 20.5516 17.3934 20.5781 17.3668C20.5826 17.3578 20.6061 17.3206 20.6428 17.2627C20.8224 16.9787 21.3168 16.1972 21.427 15.8002C21.4535 15.7471 21.4004 15.6675 21.3474 15.6675C21.2943 15.6409 21.2147 15.694 21.2147 15.7471C21.0291 16.1985 20.8168 16.6499 20.525 17.0482C20.2598 16.3047 20.1802 15.5347 20.2332 14.7646C20.2332 14.7115 20.2067 14.6584 20.1271 14.6319C20.0741 14.6319 19.9945 14.6584 19.9945 14.7115C19.8088 15.4816 19.4374 16.172 18.9068 16.7561C18.5089 15.8799 18.8007 14.5257 18.8007 14.5257C18.8007 14.4726 18.7742 14.3929 18.6946 14.3929C18.6416 14.3929 18.5885 14.4195 18.562 14.4726C18.2967 15.2692 17.4743 15.8268 17.1295 16.0392C17.0499 15.4816 17.0764 14.924 17.2091 14.3929C17.4478 14.1539 17.7131 13.9415 18.0049 13.7291C18.058 13.7025 18.0845 13.6229 18.0314 13.5698C18.0049 13.5167 17.9253 13.5167 17.8723 13.5432C17.5805 13.7556 17.3152 13.9946 17.0499 14.2336C17.0499 14.2336 17.0499 14.2336 17.0234 14.2601C16.5989 14.6584 16.2276 15.0833 15.8562 15.5612L15.6705 15.8002C15.3521 16.2251 15.0073 16.6234 14.6094 16.9951C14.1319 17.4465 13.4422 17.6324 12.8055 17.4996C13.0708 16.8889 14.0788 14.7912 15.1664 13.4901C15.697 12.8794 16.3071 12.3483 16.9438 11.8438C17.3152 11.95 17.6866 12.0031 18.0579 12.0562L18.058 12.0562C16.9173 12.8263 15.8827 13.7556 15.0073 14.8178C14.9542 14.8709 14.9808 14.9505 15.0338 14.9771C15.0603 15.0036 15.0869 15.0036 15.1134 15.0036C15.1399 15.0036 15.193 14.9771 15.2195 14.9505C16.148 13.8353 17.2356 12.8794 18.4559 12.1093H18.4824L18.8273 12.1359C18.8803 12.1359 18.9334 12.0828 18.9334 12.0297C18.9334 11.9766 18.8803 11.8969 18.8273 11.8969C17.7662 11.8438 16.7316 11.6048 15.7501 11.1534H15.7235C15.0869 10.8614 14.5033 10.4631 13.9992 9.95855C13.3626 9.32128 12.9116 8.49813 12.7524 7.62188C12.4606 5.68351 13.1503 4.46207 14.3176 3.24063C14.7951 3.16097 15.2726 3.10787 15.7766 3.10787C15.8562 3.10787 15.9092 3.05476 15.9092 2.9751C15.9092 2.92199 15.8562 2.8689 15.7766 2.8689C15.2726 2.8689 14.7685 2.922 14.2645 3.00166H14.2114C12.328 3.34685 10.6037 4.27621 9.09162 5.39143C9.01932 5.45346 8.94299 5.51147 8.86578 5.57015C8.74468 5.66219 8.6214 5.75588 8.50801 5.86938C6.91635 7.19703 5.48385 8.7371 4.23705 10.4099C2.48623 12.7466 0.921102 17.2872 0.231383 19.4911C0.655825 14.0212 2.53928 9.5337 5.98788 5.78973C9.91397 1.51469 14.1053 0.319806 15.9623 0.293253C17.0234 0.2667 17.8988 0.664998 18.2437 1.27572C18.4293 1.62091 18.4028 2.04575 18.1641 2.36438C17.9809 2.65252 17.4879 2.96651 16.9143 3.33182L16.8907 3.34685C15.4052 4.30276 13.3891 5.60386 14.3176 7.64844C15.2991 9.82579 17.7131 10.4896 19.6231 10.6489C19.5435 10.8614 19.4639 11.0738 19.3578 11.2862C19.3313 11.3393 19.3313 11.3924 19.3578 11.419C19.3843 11.4455 19.4374 11.4721 19.4904 11.4455C20.021 11.2596 20.472 10.9145 20.8434 10.4896C20.8168 11.0207 20.8699 11.5252 20.9495 12.0297C20.9495 12.0828 21.0025 12.1093 21.0291 12.1093H21.0291C21.0821 12.1093 21.1086 12.1093 21.1352 12.0828C21.5861 11.6579 21.931 11.1534 22.1963 10.5958C22.2759 11.0738 22.4615 11.7907 22.8064 12.189C22.8329 12.2155 22.8595 12.2421 22.886 12.2421C22.9125 12.2421 22.9656 12.2155 22.9656 12.189C23.2574 11.7376 23.4961 11.2065 23.6022 10.6755C23.7614 11.18 24.0532 11.8704 24.4246 12.1093H24.5307C24.5572 12.1093 24.5838 12.0828 24.6103 12.0562C24.849 11.5783 25.0347 11.0738 25.1408 10.5427C25.4061 10.9144 25.9632 11.5252 26.5999 11.4721C26.6529 11.4721 26.6794 11.4455 26.706 11.419C26.7325 11.3924 26.7325 11.3393 26.706 11.3128C26.706 11.3128 26.5733 11.0207 26.3876 10.6489C28.2446 10.4631 30.5525 9.79923 31.5075 7.67499C32.4359 5.60385 30.4198 4.30275 28.9343 3.3734L28.9105 3.35826C28.337 2.99299 27.8441 2.67906 27.661 2.39095C27.4222 2.07231 27.3957 1.64745 27.5814 1.30226C27.8997 0.691545 28.8017 0.319809 29.8628 0.346362C31.7197 0.372915 35.9111 1.5678 39.8372 5.84284C43.2858 9.58681 45.1692 14.0743 45.5937 19.5442C44.9039 17.3668 43.3388 12.7997 41.588 10.4631C40.3677 8.79021 38.9352 7.25014 37.317 5.92249C37.2242 5.84284 37.1247 5.76318 37.0252 5.68352C36.9258 5.60386 36.8263 5.5242 36.7334 5.44454C35.2213 4.30276 33.4971 3.39996 31.6136 3.05477H31.5605C31.0565 2.97511 30.5525 2.922 30.0485 2.89544C29.9954 2.89544 29.9423 2.94856 29.9158 3.00166C29.9158 3.08132 29.9689 3.13443 30.0485 3.13443C30.526 3.13443 31.03 3.18753 31.5075 3.26719C32.6747 4.48863 33.3644 5.71006 33.0726 7.62188C32.9134 8.52468 32.4625 9.32128 31.8258 9.95855C31.3218 10.4631 30.7382 10.8614 30.1015 11.1534H30.1546C29.1996 11.5783 28.1385 11.8438 27.0774 11.8969C27.0243 11.8969 26.9712 11.95 26.9712 12.0297C26.9712 12.0828 27.0243 12.1359 27.0774 12.1359L27.4222 12.1093C28.6425 12.8794 29.7567 13.8353 30.6586 14.9505C30.6851 14.9771 30.7116 15.0036 30.7647 15.0036C30.7912 15.0036 30.8178 15.0036 30.8443 14.9771C30.8973 14.924 30.8973 14.8709 30.8708 14.8178C29.9954 13.7556 28.9608 12.8263 27.7936 12.0562C28.165 12.0031 28.5364 11.9235 28.9078 11.8438C29.5444 12.3483 30.128 12.8794 30.6851 13.4901C31.7993 14.7646 32.7808 16.8623 33.0461 17.4996C32.4823 17.5937 31.8977 17.4587 31.4213 17.1315ZM20.6842 7.06427C21.1086 5.5242 23.0186 3.29374 23.6818 2.76268C23.841 2.62991 24.0797 2.55025 24.292 2.57681C24.4246 2.60336 24.5572 2.68302 24.6368 2.81579L24.6368 2.81581C24.6634 2.84236 24.6899 2.8689 24.7164 2.8689C24.7429 2.8689 24.796 2.86889 24.8225 2.84234C24.8225 2.84234 25.8306 2.20507 26.3346 2.55026C26.8386 2.89545 26.9712 3.79825 26.9182 4.32931C26.6794 4.16999 26.3876 4.11689 26.1224 4.19655C25.8306 4.30276 25.5388 4.48862 25.3531 4.75415C25.4326 4.35586 25.6979 3.98412 26.0693 3.8248C26.1224 3.79825 26.1489 3.71859 26.1224 3.66549C26.0958 3.61238 26.0163 3.58583 25.9632 3.61238C25.3796 3.87791 25.0613 4.51518 25.1408 5.1259C25.0082 5.41799 24.9286 5.73662 24.9286 6.05526C24.9286 6.90495 25.5122 7.96707 25.7244 8.33881C25.4592 8.39192 24.849 8.39192 24.292 7.38291C24.2654 7.3298 24.1858 7.30325 24.1328 7.3298C24.1063 7.35635 24.0797 7.38291 24.0797 7.43602C24.0267 7.94053 23.841 8.41847 23.6022 8.86987C23.3104 8.47158 23.1247 7.99362 23.0186 7.48911C23.0186 7.43601 22.9656 7.38291 22.9125 7.38291C22.8595 7.38291 22.8064 7.43601 22.8064 7.48911C22.8064 7.48911 22.7003 8.39191 22.2228 8.81676L22.2228 8.81675C22.0902 8.55121 21.7718 7.91395 21.8249 7.48911C21.8249 7.43601 21.7984 7.3829 21.7453 7.35635C21.6922 7.32979 21.6392 7.35636 21.6127 7.38291C21.3474 7.75465 21.1352 8.15295 21.0291 8.57779C20.8699 8.39192 20.7638 8.1795 20.7107 7.91397C20.5781 7.64844 20.6046 7.35635 20.6842 7.06427ZM20.976 8.92298C21.0025 8.94953 21.0556 8.94953 21.1086 8.94953H21.1086C21.1149 8.94326 21.1226 8.93699 21.1308 8.93037C21.1573 8.90896 21.1882 8.88389 21.1882 8.84332C21.2413 8.47158 21.3739 8.1264 21.5596 7.83431C21.6657 8.25916 21.8249 8.684 22.0371 9.05575C22.0636 9.0823 22.0902 9.10885 22.1167 9.10885C22.1432 9.10885 22.1697 9.10884 22.2228 9.08229C22.5677 8.81676 22.8064 8.41847 22.9125 7.99362C23.0452 8.39192 23.2308 8.76366 23.4961 9.08229C23.5094 9.09557 23.5227 9.10221 23.5359 9.10885C23.5492 9.11549 23.5625 9.12212 23.5757 9.1354C23.6022 9.1354 23.6553 9.10884 23.6553 9.08229C23.9471 8.684 24.1328 8.20605 24.2389 7.7281C24.7429 8.47158 25.3 8.55124 25.6183 8.52468C25.6926 9.41694 26.206 10.5637 26.4467 11.1011L26.4938 11.2065C25.804 11.0738 25.247 10.1179 25.247 10.0913C25.2204 10.0382 25.1408 10.0117 25.0878 10.0382C25.0613 10.0648 25.0347 10.0913 25.0347 10.1444C25.0347 10.6755 24.7164 11.4721 24.5838 11.7907C24.2124 11.4455 23.9206 10.4631 23.8145 10.0913C23.8145 10.0382 23.7614 9.98509 23.6818 10.0116C23.6288 10.0116 23.5757 10.0648 23.5757 10.1179C23.4961 10.7551 23.3104 11.3659 22.9921 11.8969C22.5942 11.2862 22.4615 10.1444 22.4615 10.1179C22.4615 10.0648 22.4085 10.0116 22.3554 10.0116C22.3024 10.0116 22.2493 10.0382 22.2228 10.0913C22.0106 10.702 21.6657 11.2596 21.2147 11.7376C21.1617 11.1534 21.1352 10.5693 21.1617 9.9851C21.1617 9.93199 21.1086 9.87889 21.0556 9.85234C21.0025 9.85234 20.9495 9.87889 20.9229 9.93199C20.7373 10.4896 20.1271 10.8879 19.7557 11.0738C20.1006 10.1975 20.3659 9.29472 20.5516 8.39192C20.6842 8.6309 20.8168 8.79022 20.976 8.92298ZM0.443601 19.8628C0.489282 19.7256 0.53988 19.5639 0.59751 19.3796L0.59752 19.3796C0.673755 19.1358 0.762297 18.8527 0.868045 18.5352C0.814992 18.6945 0.788466 18.8538 0.761939 19.0131L0.761936 19.0131C0.278775 21.3103 0.829617 24.4223 0.93188 25.0001C0.94191 25.0567 0.947625 25.089 0.947625 25.0938C0.947625 25.1469 1.00068 25.2 1.05373 25.2H1.08026C1.13332 25.1734 1.18637 25.1203 1.18637 25.0672C1.18637 25.0655 1.18326 25.0488 1.1776 25.0186C1.09736 24.5897 0.505104 21.4242 1.00068 19.0928C1.3986 17.2075 2.56581 14.7646 3.46775 13.1715C2.56581 15.3754 1.37207 18.8538 1.55777 22.1464C1.61082 23.6865 1.8761 25.2 2.3536 26.6604V26.687C2.39339 26.7932 2.42655 26.8994 2.45971 27.0056C2.49286 27.1118 2.52602 27.218 2.56581 27.3242C2.83109 28.0411 3.01679 28.7581 3.14942 29.5016C3.38817 31.0416 3.14942 31.9444 2.99026 32.3693L2.96373 32.3958H2.9372C0.65582 28.3598 -0.193062 24.1644 0.443601 19.8628ZM13.9992 3.29374C13.8135 3.50616 13.6278 3.71859 13.4687 3.95756C11.9035 4.48863 8.77328 6.45355 6.94288 8.84332C6.91635 8.89643 6.91635 8.97608 6.9694 9.00264C6.99593 9.02919 7.02246 9.0292 7.04898 9.0292C7.07551 9.0292 7.12857 9.00264 7.15509 8.97609C8.85286 6.77219 11.6648 4.91348 13.283 4.2762C13.1238 4.51518 12.9912 4.78072 12.8851 5.04625C11.6383 5.68352 10.4976 6.50666 9.51606 7.51567C8.9123 8.09677 8.32886 8.75926 7.78354 9.37845L7.78332 9.37871C7.70576 9.46677 7.62897 9.55396 7.55301 9.63991C6.91634 10.3834 6.35927 11.0207 6.04094 11.2331C5.56344 11.5517 4.79414 11.5783 4.47581 11.5783V11.5517C5.82872 9.10886 7.26121 7.30325 8.79981 6.00215C10.2854 4.78071 12.0627 3.71859 13.9992 3.29374ZM9.83439 11.6314C9.86091 11.6579 9.88743 11.6579 9.91395 11.6579H9.91397C9.9405 11.6579 9.99356 11.6314 9.99356 11.6048C9.99598 11.6024 10.0117 11.5834 10.0391 11.5501C10.3125 11.2186 11.7521 9.47297 12.8851 8.60434C12.9912 8.81676 13.0973 9.0292 13.2299 9.24162C12.6729 9.69302 12.1423 10.171 11.6648 10.6755C11.4168 10.9428 11.1413 11.2789 10.8581 11.6244C10.7475 11.7592 10.6358 11.8955 10.5241 12.0297C10.0466 12.6404 9.54258 13.198 9.01203 13.7556C8.56106 14.1539 7.95093 14.3398 7.36732 14.2601C7.71218 13.5697 8.8794 11.3659 10.0201 10.0382L10.1262 9.93199L10.2058 9.85234C10.4445 9.58681 10.6567 9.37438 10.869 9.18851C11.426 8.684 12.0097 8.20605 12.6198 7.7812C12.6728 7.99363 12.7259 8.1795 12.8055 8.39192C11.7111 9.21353 10.3422 10.8394 9.92871 11.3306C9.86111 11.4109 9.81904 11.4609 9.80786 11.4721C9.78133 11.4986 9.80786 11.5783 9.83439 11.6314ZM11.2934 13.0387C11.3199 13.0652 11.3465 13.0652 11.373 13.0652H11.373C11.3995 13.0652 11.4526 13.0387 11.4791 13.0121L11.6426 12.8054L11.6426 12.8053C12.2701 12.0105 13.246 10.7746 13.9992 10.1179L13.9992 10.1179L13.9992 10.1179L13.9992 10.1179L13.9993 10.1179L13.9993 10.1179L13.9993 10.1179L13.9993 10.1179L13.9993 10.1179L13.9993 10.1179L13.9993 10.1179C14.238 10.3303 14.4767 10.5427 14.742 10.7286C14.5033 10.941 13.8666 11.5252 13.1769 12.2952V12.3218C12.8851 12.6404 12.6198 12.9856 12.3545 13.3308C12.3092 13.3887 12.2644 13.4464 12.2198 13.5038C11.7948 14.0509 11.3947 14.566 10.8424 14.9505C10.3649 15.2957 9.7548 15.4285 9.1712 15.3222C9.48953 14.6053 10.6833 12.1359 11.877 10.8613C12.3545 10.3568 12.8585 9.87889 13.3891 9.45404C13.5217 9.63991 13.6544 9.82578 13.8135 9.9851C12.9647 10.7286 11.8505 12.1359 11.2669 12.9059C11.2404 12.959 11.2669 13.0121 11.2934 13.0387ZM12.8851 14.3132C12.9116 14.3398 12.9381 14.3398 12.9647 14.3398C12.9912 14.3398 13.0442 14.3132 13.0708 14.2867C13.8931 13.2246 14.8216 12.2421 15.8031 11.3393L15.8033 11.3394C16.1216 11.4721 16.4399 11.6049 16.7581 11.711C16.1745 12.189 15.6174 12.6935 15.1134 13.2511L15.0869 13.2777C14.6624 13.7556 14.2645 14.207 13.8931 14.6319C13.4687 15.1364 13.0442 15.6143 12.5667 16.0923C12.1423 16.5437 11.5056 16.703 10.8955 16.5702C11.0812 16.1188 12.0892 13.9415 13.1503 12.6669C13.1769 12.6404 13.2034 12.6072 13.2299 12.574L13.2299 12.574C13.2565 12.5408 13.283 12.5076 13.3095 12.4811C13.8135 11.9235 14.3441 11.3924 14.9012 10.8879C15.0869 11.0207 15.2991 11.1269 15.5113 11.2331L15.5113 11.2331C14.5298 12.1359 13.6544 13.1184 12.832 14.1539V14.1539C12.832 14.207 12.832 14.2867 12.8851 14.3132ZM7.68565 24.1644C7.81609 26.0969 7.2281 26.9763 7.10771 27.1564L7.10204 27.1649C7.10204 27.1649 7.07551 27.1915 7.07551 27.1649C7.0569 27.0904 7.02524 27.0159 6.98967 26.9322C6.97454 26.8966 6.95871 26.8593 6.94288 26.8197C6.43885 25.6514 6.12052 24.4034 5.98788 23.1288C5.88177 20.8187 5.88177 18.0572 7.02245 14.8178C7.7387 14.8178 8.42842 14.6584 9.09162 14.3929C7.49996 17.2341 7.52648 21.695 7.68565 24.1644ZM5.61649 13.2511L5.61661 13.2511C5.85532 13.2777 6.09403 13.3042 6.33274 13.3042C5.19205 15.8799 4.58191 18.6679 4.52886 21.4826C4.52886 21.5357 4.58191 21.6153 4.6615 21.6153C4.71455 21.6153 4.76761 21.5622 4.79413 21.4826C4.84719 18.6414 5.48385 15.8533 6.65107 13.2777C6.94287 13.2511 7.23468 13.1715 7.49996 13.0387C5.64302 17.1013 5.64302 20.5266 5.74913 23.1554C5.74913 23.4475 5.77566 23.713 5.80219 23.9785L5.80219 23.9785C5.80219 24.0715 5.80882 24.1644 5.81545 24.2573C5.82208 24.3503 5.82871 24.4432 5.82871 24.5361C5.93482 26.5807 5.61649 27.6694 5.4308 28.1474L5.40427 28.1739C5.40427 28.1739 5.37775 28.1739 5.37775 28.1474C4.92678 27.1384 4.58192 26.0762 4.31664 25.0141C3.97178 23.6068 3.81261 22.1729 3.86567 20.7125C3.86567 18.5086 4.55539 15.7737 5.61649 13.2511ZM9.72828 22.6774C9.72828 22.8044 9.73577 22.9239 9.74279 23.0359C9.74898 23.1347 9.75481 23.2276 9.75481 23.3147C9.78133 24.2175 9.43647 25.0938 8.79981 25.731H8.77328C8.77328 25.731 8.74675 25.731 8.74675 25.7045C8.74428 25.6946 8.73443 25.6616 8.7186 25.6086C8.56461 25.0931 7.84481 22.6833 7.84481 21.1905C7.89787 19.4645 8.08356 17.5262 8.66717 15.8799C8.95898 15.9064 9.25078 15.8799 9.56911 15.8268C8.90592 17.6324 8.58759 20.208 8.72023 21.4826C8.72023 21.5357 8.77329 21.5888 8.85287 21.5888C8.90592 21.5888 8.95898 21.5357 8.95898 21.456C8.82634 20.1815 9.1712 17.5527 9.86092 15.7471C10.2058 15.6674 10.5241 15.5612 10.869 15.4285C9.44666 17.9594 9.61961 20.8569 9.726 22.6393L9.72828 22.6774ZM4.9533 11.9235C3.4147 15.0302 2.48623 18.9866 2.59234 22.0933C2.59234 22.1464 2.6454 22.1995 2.69845 22.1995C2.75151 22.1995 2.80456 22.1464 2.80456 22.0667C2.69845 18.96 3.65345 14.9505 5.21858 11.8704C5.48657 11.8256 5.73577 11.7621 5.9345 11.7115C5.97183 11.702 6.00738 11.6929 6.04094 11.6845C4.55539 14.5788 3.60039 18.0041 3.52081 20.686C3.46775 22.1198 3.62692 23.5537 3.94525 24.9344C3.95852 24.9743 3.96515 25.0141 3.97178 25.0539C3.97841 25.0938 3.98504 25.1336 3.9983 25.1734L3.99832 25.1735C4.10442 25.6514 4.21053 26.1294 4.29011 26.6338C4.52886 28.0412 3.97178 29.3422 3.73303 29.8467L3.7065 29.8733C3.7065 29.8733 3.67998 29.8733 3.67998 29.8467C3.64491 29.7546 3.60042 29.64 3.54879 29.5069L3.54878 29.5069C3.28797 28.8349 2.84491 27.6934 2.51275 26.6073C2.03526 25.1469 1.76998 23.6599 1.71693 22.1198C1.5047 18.1103 3.36164 13.7556 4.184 11.9235C4.47581 11.9766 4.74108 11.9766 4.9533 11.9235ZM11.8505 21.8012C11.824 23.0226 10.9751 24.0051 10.6302 24.3768H10.6037C10.6037 24.3768 10.5772 24.3768 10.5772 24.3503C10.3915 23.7396 9.83439 21.6419 9.91397 19.8097C9.96703 18.8804 10.1262 17.9776 10.3915 17.1013C10.6833 17.1013 11.0016 17.1013 11.2934 17.0482C10.922 18.2962 10.7629 19.5973 10.8159 20.8718C10.8159 20.9249 10.869 20.9781 10.922 20.9781C10.9751 20.9781 11.0281 20.9249 11.0281 20.8453C10.9485 19.969 11.1608 17.9244 11.5587 16.9685C11.9566 16.8889 12.3545 16.7561 12.7259 16.5437C12.0362 18.1634 11.9035 20.1815 11.8505 21.8012ZM12.5402 6.40044C11.2934 7.03772 9.75481 8.55124 8.72023 9.79923C8.66718 9.85233 8.6937 9.932 8.72023 9.95855C8.74675 9.9851 8.77327 9.9851 8.79979 9.9851H8.79981C8.82633 9.9851 8.85285 9.95856 8.87937 9.93201L8.87939 9.93199C9.80786 8.79021 11.2934 7.30325 12.5137 6.66597C12.5137 6.95799 12.5402 7.22346 12.5667 7.48893V7.48893V7.48894V7.48895V7.48895V7.48896V7.48897V7.48898V7.48898V7.48899L12.5667 7.48911C11.9035 7.94051 11.2934 8.44503 10.6833 8.97609C10.4976 9.13541 10.2854 9.34783 10.0731 9.58681L10.0201 9.63991L9.91397 9.74612L9.80786 9.85234L9.19773 10.5427C8.6937 11.1534 8.16315 11.711 7.57954 12.2687C7.12857 12.6138 6.59802 12.7997 6.04094 12.7997V12.7732C6.65107 11.5783 8.34884 8.86987 9.59564 7.67499L9.62217 7.64844C10.5241 6.71908 11.5852 5.94904 12.6994 5.33832C12.6198 5.71007 12.5667 6.05526 12.5402 6.40044ZM14.4767 41.0256L15.3521 41.5035C17.4744 42.6453 18.3232 44.1854 18.6416 44.982V45.0085H18.615C17.8988 44.5837 17.156 44.2119 16.3867 43.8667L16.309 43.8301L16.3089 43.8301L16.3089 43.8301C14.513 42.9843 12.1115 41.8532 9.99356 40.3352C6.10027 37.5479 3.78576 33.7322 3.39102 33.0815L3.36164 33.0331L3.36165 33.0331C3.41471 32.8738 3.46775 32.7145 3.49428 32.5286C4.87372 34.6263 6.99593 37.1754 8.45495 38.4234C8.48148 38.4499 8.50801 38.4499 8.53453 38.4499C8.56106 38.4499 8.61411 38.4234 8.61411 38.3968C8.66717 38.3437 8.66717 38.2641 8.61411 38.2375C7.15509 36.963 4.90024 34.2545 3.57386 32.1834C3.65344 31.6789 3.7065 31.1744 3.73303 30.6433C4.10441 31.4399 4.97983 33.0597 6.91635 35.2901C8.08356 36.6709 9.43647 37.8923 10.922 38.9279L11.0547 39.0075C12.1423 39.751 13.3095 40.4149 14.4767 41.0256ZM13.7605 38.4499C15.5378 39.5386 16.0949 40.6273 16.2806 41.2114V41.238H16.2541C16.2047 41.2182 16.1517 41.1985 16.0949 41.1773L16.0949 41.1773C15.9992 41.1417 15.8931 41.1021 15.7766 41.0521C14.1584 40.4945 12.6463 39.751 11.2138 38.8217C9.67522 37.7861 8.26926 36.5381 7.07551 35.1308C5.19205 32.9535 4.31664 31.3337 3.94525 30.5637C3.94525 30.5637 3.97178 30.5637 3.97178 30.5371C4.10441 30.3513 4.23706 30.1388 4.31664 29.8999C5.40427 32.1569 7.55301 34.7325 9.09162 36.2991C9.11814 36.3257 9.14467 36.3257 9.1712 36.3257C9.19772 36.3257 9.22426 36.3257 9.25078 36.2991C9.30384 36.246 9.30384 36.1929 9.25078 36.1398C7.73871 34.5997 5.56343 31.9975 4.50233 29.7671C4.4758 29.714 4.44927 29.6874 4.39622 29.6874C4.58191 29.1829 4.71455 28.6784 4.82066 28.1739C6.06746 31.2275 8.00398 33.9359 10.4976 36.0867C10.6037 36.1929 10.7363 36.2991 10.869 36.4053C11.7709 37.1754 12.7524 37.8392 13.7605 38.4499ZM14.9808 38.503V38.5296H14.9542C14.8054 38.4364 14.6043 38.3302 14.3784 38.211C14.2823 38.1602 14.1818 38.1071 14.0788 38.0516C13.0177 37.5206 11.9831 36.9098 11.0281 36.2195C8.64064 34.2545 6.73065 31.7851 5.4308 28.9705C5.58996 28.705 5.7226 28.4394 5.82871 28.1474C6.75718 30.1919 7.97745 32.1038 9.43647 33.8297C9.44974 33.843 9.463 33.8496 9.47626 33.8563C9.48953 33.8629 9.5028 33.8695 9.51606 33.8828C9.54259 33.8828 9.56911 33.8828 9.59564 33.8563C9.6487 33.8032 9.6487 33.75 9.59564 33.6969C8.08356 31.9444 6.8633 29.9795 5.93483 27.8553C6.06747 27.4039 6.17357 26.9525 6.25315 26.4745C8.03051 31.7851 10.922 34.2811 12.9912 35.6884C13.9992 36.3257 14.7155 37.3347 14.9808 38.503ZM13.9727 35.5822C13.9727 35.6088 13.9462 35.6088 13.9462 35.6088C13.3095 35.2901 11.7179 34.467 10.6833 33.4314L10.6567 33.4049C9.1712 31.8648 7.97745 30.0592 7.15509 28.0943L7.18162 28.0677C7.36732 27.8287 7.49996 27.5632 7.6326 27.2711C8.37537 28.8377 9.27731 30.3247 10.3119 31.732C10.3384 31.7586 10.3649 31.7851 10.418 31.7851H10.418C10.4445 31.7851 10.4711 31.7851 10.4976 31.7586C10.5506 31.732 10.5506 31.6524 10.5241 31.5993C9.463 30.1654 8.53454 28.5988 7.76523 26.979C7.95093 26.4745 8.1101 25.97 8.18968 25.439C9.30384 29.6874 11.3199 31.5727 12.5667 32.7145C12.6499 32.7978 12.7331 32.8738 12.8126 32.9463C12.8851 33.0126 12.9544 33.076 13.0177 33.1393C13.8135 33.9625 13.9462 35.1308 13.9727 35.5822ZM13.8401 33.0331L13.84 33.0331C13.8135 33.0597 13.8135 33.0597 13.787 33.0597C13.283 32.7676 12.1158 32.0506 11.3199 31.1213C10.2058 29.8202 9.35689 28.3067 8.82634 26.6604C8.85287 26.6604 8.85287 26.6338 8.85287 26.6338C9.03856 26.3683 9.19773 26.1293 9.33036 25.8904C9.80786 27.1915 10.418 28.4394 11.2138 29.5812L11.2138 29.5812C11.2404 29.6078 11.2669 29.6343 11.3199 29.6343H11.32C11.3465 29.6343 11.373 29.6343 11.3995 29.6078C11.4526 29.5812 11.4526 29.5016 11.426 29.4485C10.6302 28.2536 9.99356 26.979 9.51606 25.6248C9.75479 25.2266 9.94047 24.8017 10.1262 24.3769L10.1262 24.3768C10.1594 24.5598 10.2031 24.7324 10.2441 24.8946C10.2686 24.9912 10.2921 25.0842 10.3119 25.1734V25.2C10.7629 26.8463 11.6117 28.3598 12.7259 29.6343C12.831 29.7395 12.9194 29.8614 12.9912 29.9603L12.9913 29.9603C13.0101 29.9862 13.0277 30.0106 13.0442 30.0326C13.8931 31.0947 13.8666 32.502 13.8401 33.0331ZM13.4556 27.6028L13.4556 27.6028L13.4556 27.6028C13.5311 27.7608 13.5998 27.9045 13.6544 28.0411C13.8931 28.705 13.9992 29.3953 13.9462 30.1123C13.9462 30.1123 13.9462 30.1388 13.9196 30.1388H13.8931L13.7605 30.0326C13.2565 29.6078 12.3015 28.7846 11.7974 27.988L11.7709 27.9615C11.2138 27.1118 10.8159 26.1559 10.5241 25.1734C10.7629 24.961 10.9751 24.722 11.1342 24.483C11.4526 25.5983 11.9035 26.6869 12.5137 27.6694C12.5402 27.696 12.5667 27.7225 12.6198 27.7225H12.6198C12.6463 27.7225 12.6728 27.7225 12.6728 27.696C12.7259 27.6694 12.7524 27.5897 12.6994 27.5366C12.0627 26.5011 11.6117 25.3858 11.3199 24.2175C11.5322 23.9254 11.6913 23.6068 11.8505 23.2616C12.0761 24.6168 12.681 25.9246 13.1498 26.9383L13.2299 27.1118C13.3072 27.2922 13.3844 27.4538 13.4556 27.6028ZM13.6544 20.1815C13.6278 20.6063 13.5748 21.0311 13.4687 21.4294C13.2299 22.0136 12.8585 22.5447 12.381 22.9695H12.3545C12.3545 22.9695 12.328 22.9695 12.328 22.943C12.1953 22.1995 12.1158 21.4826 12.1158 20.7391V20.7125C12.1688 19.7832 12.2749 18.8538 12.5137 17.951C12.7259 17.9776 12.9381 17.9776 13.1503 17.951C12.9912 18.721 12.8851 19.4911 12.832 20.2877C12.832 20.3408 12.8851 20.4204 12.9647 20.4204C13.0442 20.4204 13.0708 20.3673 13.0708 20.2877C13.1238 19.4911 13.2299 18.721 13.3891 17.951C13.6278 17.9245 13.8666 17.8713 14.0788 17.8182C13.8401 18.5617 13.7074 19.3583 13.6544 20.1815ZM15.8031 30.4575H15.8031C15.7766 30.4575 15.7501 30.4575 15.7501 30.4309V30.3778C16.4398 29.5547 16.7846 28.4926 17.103 27.4835L17.1581 27.3227C17.4291 26.5306 17.6886 25.7721 18.111 25.2C18.4559 25.1203 18.8538 25.0407 19.2517 24.9876C18.7477 25.9169 18.2702 26.8728 17.8723 27.8818C17.8457 27.9349 17.8723 28.0146 17.9253 28.0411H17.9784C18.0314 28.0411 18.0845 28.0146 18.0845 27.9615C18.4824 26.9259 18.9864 25.9169 19.5435 24.9344C19.7159 24.9212 19.8816 24.9013 20.0474 24.8814L20.0475 24.8813C20.2133 24.8614 20.3791 24.8415 20.5516 24.8282C20.5311 24.8794 20.5097 24.9325 20.4875 24.9875C20.3944 25.2184 20.2873 25.484 20.1802 25.7841C19.7823 26.8463 19.2517 28.2536 18.4028 29.2891C17.7662 30.0592 16.5194 30.3513 15.8031 30.4575ZM16.7316 33.4049V33.3517C17.4743 32.3693 18.058 31.2806 18.4559 30.1123C18.5885 29.7405 18.7477 29.3688 18.9068 29.0236V28.9705C19.565 28.0077 20.0057 26.8515 20.3443 25.9633L20.3924 25.8372C20.4493 25.6665 20.5137 25.5034 20.5736 25.352L20.5736 25.3519C20.6254 25.2208 20.6738 25.0984 20.7107 24.9876V28.0146C20.6046 28.227 20.4189 28.5988 20.1802 29.0502C19.7823 29.8467 19.2782 30.8292 19.0395 31.201C19.013 31.2541 19.013 31.3337 19.066 31.3603C19.0925 31.3603 19.1191 31.3868 19.1191 31.3868C19.1721 31.3868 19.1986 31.3603 19.2252 31.3337C19.4639 30.962 19.968 29.953 20.3659 29.1564L20.366 29.1561C20.4721 28.9438 20.5781 28.7315 20.6842 28.5457V30.245C20.6311 30.4044 20.1271 31.7055 19.4374 32.4224C18.6946 33.219 17.4744 33.4049 16.7846 33.4314C16.7581 33.4314 16.7581 33.4314 16.7316 33.4049ZM18.1906 36.007C18.1641 36.007 18.1641 36.0071 18.1375 35.9805V35.9274C18.7914 35.1219 19.4214 33.6721 19.8693 32.6413L19.9414 32.4755C19.9912 32.3635 20.0409 32.2572 20.0879 32.1569C20.1412 32.0432 20.191 31.9369 20.2332 31.8382L20.2332 31.8382C20.4189 31.5196 20.6046 31.201 20.7373 30.8823V33.0331C20.6046 33.4314 20.3924 33.8297 20.1536 34.1749C20.1271 34.228 20.1271 34.3077 20.1802 34.3342C20.2067 34.3342 20.2332 34.3608 20.2332 34.3608C20.2863 34.3608 20.3128 34.3342 20.3393 34.3076L20.3394 34.3076C20.472 34.0952 20.6046 33.8828 20.7373 33.6438V35.1308C19.9149 35.9008 18.8007 36.007 18.1906 36.007ZM22.9921 46.7345C21.7188 44.5306 21.0291 42.0611 21.0025 39.512V24.7486C21.2943 24.722 21.5861 24.6955 21.9045 24.6955V29.8467C21.9045 29.8999 21.9575 29.9795 22.0371 29.9795C22.1167 29.9795 22.1697 29.9264 22.1697 29.8467V24.6955C22.382 24.6955 22.6207 24.6955 22.8595 24.6689L22.9125 42.8312C22.9125 42.8843 22.9656 42.9639 23.0186 42.9639C23.0717 42.9639 23.1513 42.9108 23.1513 42.8312L23.1778 24.6689C23.4165 24.6689 23.6553 24.6689 23.8675 24.6955V29.8467C23.8675 29.8999 23.9206 29.953 23.9736 29.953C24.0267 29.953 24.1063 29.8999 24.1063 29.8467V24.6955C24.2618 24.7084 24.4109 24.7151 24.5568 24.7216H24.5569L24.5569 24.7216L24.557 24.7216C24.7098 24.7284 24.859 24.735 25.0082 24.7486V39.512C24.9552 42.0611 24.2654 44.5571 22.9921 46.7345ZM27.8467 35.9805C27.8467 36.0071 27.8201 36.007 27.7936 36.007C27.1835 36.007 26.0693 35.9008 25.2204 35.1308V33.6438C25.3531 33.8828 25.4857 34.0952 25.6183 34.3076C25.6449 34.3342 25.6714 34.3608 25.7244 34.3608C25.7775 34.3608 25.8306 34.3077 25.8571 34.2546C25.8571 34.228 25.8571 34.2014 25.8306 34.1749C25.5918 33.8031 25.4061 33.4314 25.247 33.0331V30.8823C25.4061 31.2275 25.5653 31.5461 25.751 31.8382C25.7932 31.9369 25.843 32.0431 25.8962 32.1568L25.8963 32.1569C25.9433 32.2573 25.993 32.3635 26.0428 32.4755L26.0741 32.5475L26.0741 32.5475C26.5242 33.5814 27.1728 35.0712 27.8467 35.9274V35.9805ZM29.2261 33.3517V33.4049C29.2261 33.4314 29.1996 33.4314 29.173 33.4314C28.5098 33.4049 27.2896 33.219 26.4672 32.3958C25.751 31.6789 25.2735 30.4044 25.2204 30.2185V28.5191L25.5388 29.1298C25.9367 29.9264 26.4407 30.9089 26.6794 31.3072C26.706 31.3337 26.7325 31.3603 26.7856 31.3603H26.7856C26.8121 31.3603 26.8386 31.3603 26.8386 31.3337C26.8917 31.3072 26.9182 31.2275 26.8917 31.1744C26.6529 30.8027 26.1489 29.8202 25.751 29.0236C25.5388 28.5988 25.3265 28.2005 25.2204 28.0146V24.9876C25.3265 25.2265 25.4326 25.5186 25.5388 25.8372C25.8836 26.7666 26.3346 27.9615 27.0243 28.9705V29.0236C27.21 29.3688 27.3692 29.7405 27.4753 30.1123C27.8997 31.2806 28.4833 32.3693 29.2261 33.3517ZM28.8547 27.4835L28.8996 27.6149L28.8996 27.615C29.2301 28.5841 29.5732 29.5903 30.2076 30.3778C30.2342 30.4044 30.2342 30.4309 30.2076 30.4309C30.2076 30.4575 30.1811 30.4575 30.1546 30.4575H30.1546C29.4648 30.3513 28.1915 30.0592 27.5283 29.2891C26.6529 28.2536 26.1224 26.8197 25.751 25.7576C25.6439 25.4574 25.5368 25.1919 25.4436 24.961C25.4214 24.9059 25.4 24.8528 25.3796 24.8017C25.7244 24.8282 26.0693 24.8813 26.3876 24.9344C26.9447 25.9169 27.4222 26.9259 27.8467 27.9615C27.8732 28.0146 27.9262 28.0677 27.9793 28.0411C28.0324 28.0146 28.0854 27.9615 28.0589 27.9084V27.8818C27.661 26.8994 27.21 25.9169 26.6794 24.9876C27.0774 25.0407 27.4753 25.1203 27.8201 25.2C28.2976 25.8107 28.5894 26.6073 28.8547 27.4835ZM30.8443 25.8904C25.8306 23.7396 20.1536 23.7396 15.1399 25.8904V24.961C16.9438 24.2441 20.6842 23.1023 22.9921 23.1023C25.3 23.1023 29.0404 24.2441 30.8443 24.961V25.8904ZM23.841 18.7741C23.3104 18.8538 22.7534 18.8538 22.2228 18.7741V18.2165C22.7534 18.2962 23.3104 18.2962 23.841 18.2165V18.7741ZM23.7736 19.0193H23.7736L23.841 19.0131V19.5707C23.3104 19.6504 22.7534 19.6504 22.2228 19.5707V19.0131C22.4881 19.0662 22.7534 19.0662 22.9921 19.0662C23.2613 19.0662 23.5079 19.0436 23.7736 19.0193ZM23.7736 19.8159H23.7736L23.841 19.8097V20.3673C23.3104 20.447 22.7534 20.447 22.2228 20.3673V19.8363L22.223 19.8363H22.223H22.223H22.223H22.2231H22.2231H22.2231H22.2231H22.2231H22.2231C22.4883 19.8628 22.7535 19.8894 22.9921 19.8628C23.2613 19.8628 23.5079 19.8402 23.7736 19.8159ZM23.841 17.9776C23.3104 18.0572 22.7534 18.0572 22.2228 17.9776V17.4199L22.2229 17.4199H22.2229H22.2229H22.2229H22.2229H22.223H22.223H22.223H22.223H22.223C22.4882 17.4465 22.7534 17.4731 22.9921 17.4731C23.2613 17.4731 23.5079 17.4505 23.7737 17.4261L23.841 17.4199V17.9776ZM22.2228 20.6329L22.2229 20.6329H22.2229H22.2229H22.2229H22.2229H22.223H22.223H22.223H22.223H22.223C22.4882 20.6594 22.7534 20.686 22.9921 20.686C23.2613 20.686 23.5079 20.6634 23.7737 20.639L23.841 20.6329V21.1905C23.3104 21.2701 22.7534 21.2701 22.2228 21.1905V20.6329ZM23.841 17.1544C23.3104 17.2341 22.7534 17.2341 22.2228 17.1544V16.5968C22.4881 16.6234 22.7534 16.6499 22.9921 16.6499C23.2614 16.6499 23.5082 16.6273 23.7741 16.6029L23.841 16.5968V17.1544ZM22.2228 21.4294L22.223 21.4295C22.4882 21.456 22.7534 21.4826 22.9921 21.4826C23.2613 21.4826 23.5079 21.46 23.7736 21.4356L23.841 21.4294V21.9871C23.3104 22.0667 22.7534 22.0667 22.2228 21.9871V21.4294ZM23.0717 15.6409C22.3554 15.6409 21.7718 15.0567 21.7718 14.3663C21.7718 13.676 22.3554 13.0652 23.0452 13.0652C23.7614 13.0652 24.345 13.6494 24.345 14.3398C24.3715 15.0567 23.7879 15.6409 23.0717 15.6409ZM22.9921 16.0126C23.2839 16.0126 23.5757 15.933 23.841 15.7737V16.3578C23.3104 16.4375 22.7534 16.4375 22.2228 16.3578V15.8268C22.4615 15.9595 22.7268 16.0126 22.9921 16.0126ZM22.2228 22.226L22.2229 22.226H22.223H22.223H22.223H22.223H22.2231H22.2231H22.2231H22.2231H22.2231C22.4883 22.2526 22.7535 22.2791 22.9921 22.2791C23.2613 22.2791 23.5079 22.2565 23.7736 22.2322H23.7736L23.841 22.226V22.8899C23.5492 22.8633 23.2574 22.8368 22.9921 22.8368H22.9919C22.7267 22.8368 22.488 22.8368 22.2228 22.8633V22.226ZM30.2076 11.3659C31.1891 12.2687 32.1176 13.2511 32.94 14.3132C32.9665 14.3398 32.993 14.3663 33.0461 14.3663C33.0991 14.3663 33.1787 14.3132 33.1787 14.2601C33.1787 14.2336 33.1787 14.207 33.1522 14.1805C32.3298 13.1449 31.4279 12.1624 30.4729 11.2596L30.4729 11.2596C30.6851 11.1534 30.8973 11.0472 31.083 10.9145C31.6401 11.419 32.1707 11.95 32.6747 12.5076C33.8154 13.7556 34.903 16.1454 35.1152 16.6234C34.5051 16.7561 33.895 16.5702 33.444 16.1454C32.9665 15.694 32.5421 15.216 32.1176 14.685C32.0136 14.566 31.9076 14.4429 31.7995 14.3174L31.7993 14.3172C31.5212 13.9944 31.2294 13.6557 30.9239 13.3308L30.8973 13.3042C30.3933 12.7466 29.8362 12.2421 29.2526 11.7642L30.2076 11.3659ZM32.0115 10.1444C32.7945 10.8057 33.7807 12.0544 34.4078 12.8485L34.5582 13.0387C34.5847 13.0652 34.6112 13.0918 34.6643 13.0918C34.6908 13.0918 34.7173 13.0918 34.7439 13.0652C34.7969 13.0121 34.7969 12.959 34.7704 12.9059L34.6099 12.7029C33.9823 11.9081 33.0025 10.6672 32.2237 9.9851C32.3829 9.82578 32.5155 9.63991 32.6482 9.45404C33.1787 9.87889 33.6827 10.3568 34.1602 10.8613C34.1774 10.8956 34.2056 10.9189 34.2377 10.9453C34.2553 10.9598 34.2741 10.9753 34.2929 10.9941C35.4866 12.3483 36.6538 14.8443 36.8661 15.3488C36.2825 15.4285 35.6988 15.2957 35.2214 14.9505C34.6377 14.4991 34.1072 13.968 33.7093 13.3308C33.6535 13.2582 33.5988 13.1855 33.5444 13.1132C33.34 12.8415 33.1383 12.5734 32.8869 12.3218V12.2952C32.3829 11.7376 31.8789 11.2331 31.3218 10.7286C31.534 10.5693 31.7728 10.3568 32.0115 10.1444ZM33.0991 8.60434C34.3459 9.56025 35.9907 11.5783 35.9907 11.6048C36.0172 11.6314 36.0437 11.6579 36.0968 11.6579C36.1233 11.6579 36.1498 11.6579 36.1763 11.6314C36.2294 11.5783 36.2294 11.5252 36.2029 11.4721C36.1917 11.4609 36.1497 11.411 36.0822 11.3308L36.082 11.3306C35.6685 10.8394 34.2997 9.21353 33.2052 8.39192C33.2848 8.20605 33.3379 7.99363 33.3909 7.7812C34.0011 8.20605 34.5847 8.684 35.1418 9.18851L35.805 9.85234L35.8845 9.93199L35.9907 10.0648C37.1313 11.3924 38.2986 13.6229 38.6434 14.3132C38.0333 14.3663 37.4497 14.1805 36.9987 13.7822C36.4681 13.2246 35.9641 12.667 35.4866 12.0562C35.3751 11.9222 35.2635 11.7861 35.1531 11.6515L35.1528 11.6511C34.8695 11.3056 34.594 10.9695 34.3459 10.702C33.8684 10.171 33.3379 9.69301 32.7808 9.26817L32.7809 9.26801C32.887 9.05564 32.9931 8.84326 33.0991 8.60434ZM39.0679 8.84332C37.2109 6.45355 34.1072 4.48863 32.5421 3.95756C32.3829 3.71859 32.1972 3.50616 32.0115 3.29374C33.948 3.71859 35.7254 4.78071 37.264 6.00215C38.8026 7.30325 40.2351 9.10886 41.588 11.5517H41.5615C41.2431 11.5517 40.4738 11.5252 39.9963 11.2065C39.6789 11.011 39.2042 10.4556 38.6343 9.78877L38.6342 9.78872L38.6342 9.78863L38.6341 9.78859L38.4842 9.61335C37.9006 8.92297 37.2109 8.15294 36.5212 7.48911C35.5397 6.4801 34.399 5.65696 33.1522 5.01968C33.0461 4.75415 32.9134 4.48863 32.7543 4.24966C34.3725 4.88693 37.1579 6.74563 38.8822 8.94953C38.9087 8.97608 38.9352 9.00264 38.9883 9.00264C39.0148 9.00264 39.0413 9.00264 39.0679 8.97609C39.0944 8.94954 39.0944 8.89643 39.0679 8.84332ZM40.0494 23.1288C39.8902 24.4034 39.5719 25.6514 39.0944 26.8197C39.0833 26.8474 39.0722 26.874 39.0614 26.8997L39.0476 26.9322L39.0476 26.9322C39.012 27.0159 38.9804 27.0904 38.9618 27.1649L38.9352 27.1914H38.9087C38.7761 27.0321 38.1924 26.1293 38.3251 24.191C38.4842 21.7215 38.5373 17.2606 36.9722 14.3929C37.6354 14.6584 38.3251 14.8178 39.0413 14.8178C40.1555 18.0572 40.1555 20.8187 40.0494 23.1288ZM35.1683 15.455C35.4866 15.5878 35.8315 15.694 36.1763 15.7737C36.8661 17.5527 37.2109 20.1815 37.0783 21.4826C37.0783 21.5357 37.1313 21.6153 37.1844 21.6153C37.2375 21.6153 37.2905 21.5622 37.2905 21.5091C37.4231 20.2346 37.1048 17.6589 36.4416 15.8533C36.7334 15.9064 37.0252 15.9064 37.3436 15.9064C37.9006 17.5527 38.1129 19.4911 38.1659 21.217C38.1659 22.8899 37.317 25.6248 37.264 25.731C37.264 25.731 37.264 25.7576 37.2375 25.7576H37.2109C36.5743 25.1203 36.2294 24.2441 36.2559 23.3413C36.2559 23.2542 36.2618 23.1612 36.2679 23.0625C36.275 22.9505 36.2825 22.831 36.2825 22.704C36.3886 20.8984 36.5477 17.9775 35.1683 15.455ZM41.7472 25.0141C41.4819 26.1028 41.137 27.1384 40.6861 28.1474C40.6861 28.1474 40.686 28.1739 40.6595 28.1739C40.6595 28.1739 40.633 28.1739 40.633 28.1474C40.4473 27.6694 40.129 26.5807 40.2351 24.5361C40.2351 24.4432 40.2417 24.3503 40.2483 24.2573C40.255 24.1644 40.2616 24.0715 40.2616 23.9785C40.2752 23.8425 40.2818 23.7064 40.2886 23.5668V23.5667V23.5666C40.2951 23.4338 40.3017 23.2978 40.3147 23.1554C40.4473 20.5266 40.4208 17.1013 38.5638 13.0387C38.8291 13.1449 39.1209 13.2246 39.4127 13.2777C40.5799 15.8533 41.1901 18.6414 41.2431 21.4826C41.2431 21.5357 41.2962 21.6153 41.3758 21.6153C41.4288 21.6153 41.4819 21.5622 41.4819 21.4826C41.4288 18.6679 40.8187 15.8799 39.678 13.3042C39.9167 13.3042 40.1555 13.3042 40.3942 13.2511C41.4819 15.7737 42.1451 18.5086 42.1981 20.7125C42.2246 22.1464 42.0655 23.6068 41.7472 25.0141ZM36.362 7.70155C37.6354 8.92299 39.3066 11.6314 39.9433 12.8263L39.9167 12.8528C39.3597 12.8528 38.8026 12.667 38.3781 12.3218C37.7945 11.7907 37.264 11.2065 36.76 10.5958L36.1498 9.90545L36.0437 9.79923L35.9641 9.69302L35.9111 9.63991C35.6989 9.40094 35.4866 9.18852 35.3009 9.0292C34.7173 8.49814 34.0807 7.99362 33.4175 7.54222C33.4705 7.27669 33.4705 6.98461 33.4705 6.71908C34.6643 7.35636 36.1498 8.86987 37.0783 9.9851C37.1048 10.0117 37.1313 10.0382 37.1844 10.0382C37.2109 10.0382 37.2374 10.0382 37.264 10.0116C37.317 9.95854 37.317 9.90544 37.2905 9.85234C36.2559 8.60434 34.7173 7.06427 33.4705 6.45355C33.444 6.10836 33.3909 5.76317 33.2848 5.41798C34.399 6.00215 35.4601 6.77219 36.362 7.70155ZM33.2583 16.5702C33.6297 16.7561 34.0011 16.9154 34.4255 16.9951C34.8234 17.951 35.0091 19.9956 34.9561 20.8453C34.9561 20.8984 35.0091 20.9781 35.0622 20.9781C35.1152 20.9781 35.1683 20.9249 35.1948 20.8718C35.2479 19.5707 35.0887 18.2696 34.7173 17.0482C35.0091 17.1013 35.3275 17.1013 35.6193 17.1013C35.8845 17.9776 36.0437 18.9069 36.0968 19.8097C36.1763 21.6419 35.6193 23.7396 35.4336 24.3503C35.4336 24.3503 35.4336 24.3768 35.407 24.3768H35.3805C35.0091 24.0051 34.1868 23.0226 34.1602 21.8012C34.1072 20.1815 33.9746 18.1634 33.2583 16.5702ZM43.4449 26.6073C43.0205 27.9084 42.4899 29.3157 42.2777 29.8733C42.2777 29.8733 42.2777 29.8999 42.2512 29.8999C42.2512 29.8999 42.2247 29.8999 42.2247 29.8733C41.9859 29.3688 41.4288 28.0677 41.6676 26.6604C41.7471 26.1559 41.8532 25.678 41.9593 25.2001L41.9594 25.2C41.9726 25.1601 41.9793 25.1203 41.9859 25.0805C41.9925 25.0407 41.9992 25.0008 42.0124 24.961C42.3308 23.5802 42.4899 22.1464 42.4369 20.7125C42.3573 18.0572 41.4023 14.6319 39.9167 11.711L39.9811 11.7273L40.0234 11.7381C40.2221 11.7887 40.4712 11.8522 40.7391 11.8969C42.3308 14.9771 43.2592 18.9866 43.1531 22.0933C43.1531 22.1464 43.2062 22.1995 43.2592 22.226C43.3123 22.226 43.3653 22.1729 43.3919 22.1198C43.498 19.0131 42.5695 15.0567 41.0309 11.95C41.2697 11.9766 41.5084 11.9766 41.7472 11.95C42.596 13.7822 44.453 18.1369 44.2408 22.1464C44.1612 23.6599 43.8959 25.1469 43.4449 26.6073ZM32.2503 30.0326L32.1176 30.1388H32.0911C32.0911 30.1388 32.0646 30.1388 32.0646 30.1123C32.0115 29.4219 32.1176 28.705 32.3564 28.0411C32.4625 27.7756 32.5951 27.457 32.7808 27.1118C33.2583 26.0762 33.895 24.6955 34.1072 23.2882C34.2664 23.6068 34.452 23.9254 34.6643 24.2441C34.3725 25.4124 33.895 26.5276 33.2848 27.5632C33.2583 27.6163 33.2583 27.696 33.3114 27.7225C33.3379 27.7491 33.3644 27.7491 33.3644 27.7491C33.4175 27.7491 33.444 27.7225 33.4705 27.696C34.0807 26.7135 34.5316 25.6248 34.85 24.5096C35.0357 24.7751 35.2479 24.9875 35.4866 25.2C35.2214 26.1824 34.7969 27.1118 34.2398 27.988L34.2133 28.0146C33.7093 28.7846 32.7543 29.6078 32.2503 30.0326ZM32.2503 33.0597H32.2237C32.2237 33.0597 32.1972 33.0597 32.1972 33.0331C32.1441 32.502 32.1441 31.0947 32.9665 30.0326L33.2848 29.6343C34.4255 28.3598 35.2479 26.8463 35.7254 25.2V25.1734C35.805 24.9079 35.858 24.6424 35.9111 24.3768C36.0702 24.8017 36.2825 25.2265 36.5212 25.6248C36.0702 26.979 35.407 28.2536 34.6112 29.4485C34.5847 29.5016 34.5847 29.5812 34.6377 29.6078C34.6643 29.6343 34.6908 29.6343 34.7173 29.6343C34.7439 29.6343 34.7969 29.6078 34.8234 29.5812C35.5927 28.4394 36.2294 27.1915 36.7069 25.8904C36.8395 26.1293 36.9987 26.3683 37.1844 26.6338C37.1844 26.6604 37.2109 26.6604 37.2109 26.6604C36.6804 28.2801 35.8315 29.7936 34.7173 31.1213C34.0404 31.9117 33.0757 32.5293 32.5086 32.8923C32.409 32.9561 32.3216 33.012 32.2503 33.0597ZM32.0911 35.6353H32.0646V35.6088C32.0911 35.1308 32.2237 33.9625 33.0461 33.1393L33.0462 33.1392C33.1788 33.0065 33.3114 32.8737 33.4971 32.7145L33.5263 32.6871C34.7497 31.5426 36.7688 29.6537 37.8741 25.439C37.9537 25.97 38.1129 26.5011 38.2986 26.979C37.5558 28.5988 36.6273 30.1654 35.5662 31.5993C35.5132 31.6524 35.5397 31.732 35.5927 31.7586C35.6193 31.7851 35.6458 31.7851 35.6723 31.7851C35.6988 31.7851 35.7519 31.7586 35.7784 31.732C36.813 30.3247 37.6884 28.8377 38.4312 27.2711L38.464 27.3373L38.4878 27.3854C38.6025 27.6184 38.7228 27.8626 38.8822 28.0677L38.9087 28.0943C38.0863 30.0592 36.8926 31.8648 35.407 33.4049C35.407 33.4049 35.3805 33.4049 35.3805 33.4314C34.3194 34.4935 32.7277 35.3167 32.0911 35.6353ZM31.9319 38.0782C31.5871 38.264 31.2953 38.4234 31.0565 38.5561H31.03L31.0035 38.5296C31.1361 37.8923 31.5605 36.6974 32.993 35.715C35.0357 34.3077 37.9272 31.8117 39.7311 26.5011C39.7841 26.9525 39.8902 27.4039 40.0229 27.8553C39.0944 29.9795 37.8476 31.9444 36.362 33.6969C36.309 33.75 36.3355 33.8297 36.362 33.8563C36.3886 33.8828 36.4151 33.8828 36.4416 33.8828C36.4549 33.8828 36.4682 33.8762 36.4814 33.8695C36.4947 33.8629 36.5079 33.8563 36.5212 33.8563C37.9802 32.1303 39.2005 30.2185 40.129 28.1739C40.2351 28.466 40.3677 28.7315 40.5269 28.997C39.227 31.7851 37.317 34.2811 34.9295 36.246C34.0276 36.9364 32.993 37.5471 31.9319 38.0782ZM30.2607 41.0787L29.7832 41.2645H29.7567V41.238C29.9423 40.6804 30.4994 39.5651 32.2503 38.4765C33.2583 37.8658 34.2133 37.1754 35.1152 36.4319L35.1154 36.4318C35.248 36.3256 35.3806 36.2194 35.4866 36.1133C37.9537 33.9625 39.9167 31.2541 41.1635 28.227C41.2697 28.7315 41.4023 29.2626 41.588 29.7405C41.5349 29.7405 41.5084 29.7671 41.4819 29.8202C40.4208 32.0507 38.272 34.6528 36.7334 36.1929C36.6804 36.246 36.6804 36.3257 36.7334 36.3522C36.76 36.3788 36.7865 36.3788 36.813 36.3788C36.8395 36.3788 36.8661 36.3788 36.8926 36.3522C38.4312 34.8122 40.5799 32.21 41.6676 29.953C41.7471 30.1653 41.8797 30.3777 42.0123 30.5901L42.0124 30.5902L42.039 30.6168C41.6676 31.3868 40.7922 33.0066 38.9087 35.1839C37.715 36.5912 36.309 37.8392 34.7704 38.8748C33.3909 39.8041 31.8523 40.5211 30.2607 41.0787ZM43.0735 32.3693H43.047C43.047 32.3693 43.0205 32.3693 43.0205 32.3427C42.8613 31.9179 42.6226 31.0151 42.8878 29.475C43.0205 28.7315 43.2062 28.0146 43.4715 27.2977C43.5112 27.1914 43.5444 27.0852 43.5776 26.979C43.6107 26.8728 43.6439 26.7666 43.6837 26.6604C44.1612 25.2 44.4264 23.6865 44.4795 22.1464C44.6652 18.8538 43.4714 15.3488 42.5695 13.1715C43.4714 14.7646 44.6387 17.2075 45.0366 19.0928C45.5194 21.3399 44.9698 24.4004 44.8669 24.9734C44.8567 25.0301 44.8509 25.0624 44.8509 25.0672C44.8509 25.1203 44.8774 25.2 44.957 25.2H44.9835C45.0366 25.2 45.0896 25.1469 45.0896 25.0938C45.0896 25.0929 45.0905 25.088 45.092 25.0793L45.0983 25.045C45.1782 24.6121 45.7711 21.3969 45.2753 19.0397C45.2635 18.9686 45.2464 18.8976 45.2287 18.8242L45.2287 18.824L45.2287 18.824C45.2067 18.7328 45.1839 18.6381 45.1692 18.5352C45.2749 18.8525 45.3634 19.1354 45.4396 19.379L45.4397 19.3796L45.4398 19.3797L45.4399 19.3801C45.4975 19.5642 45.548 19.7258 45.5937 19.8628C46.2038 24.1644 45.3549 28.3598 43.0735 32.3693ZM23.3104 4.51519C23.337 4.51519 23.3635 4.51518 23.39 4.48863C23.5757 4.32931 23.8145 4.2231 24.0797 4.19655C24.1328 4.19655 24.1859 4.14344 24.1859 4.06378C24.1859 4.01068 24.1593 3.95757 24.0797 3.95757C23.9471 3.95757 23.7879 3.98412 23.6553 4.03722L23.9736 3.7186C23.9904 3.70179 24.0099 3.68497 24.0303 3.66732C24.0744 3.6292 24.1231 3.58716 24.1593 3.53272C24.2124 3.47962 24.2124 3.4265 24.1593 3.3734C24.1063 3.32029 24.0267 3.32029 24.0002 3.3734C23.9736 3.39995 23.9405 3.4265 23.9073 3.45306C23.8742 3.47962 23.841 3.50617 23.8145 3.53272C23.5492 3.74515 23.337 4.01068 23.1778 4.32931C23.1513 4.38242 23.1778 4.43553 23.2043 4.46208C23.2574 4.51519 23.2839 4.51519 23.3104 4.51519ZM22.9921 13.3573C22.6207 13.3573 22.3024 13.5432 22.0902 13.8353C22.0636 13.8884 22.0636 13.9681 22.1167 13.9946C22.1697 14.0212 22.2493 14.0212 22.2759 13.9681C22.5146 13.5963 23.0186 13.4636 23.4165 13.7025C23.7879 13.9415 23.9206 14.446 23.6818 14.8443C23.6553 14.8974 23.6288 14.924 23.5757 14.9771C23.5227 15.0302 23.5227 15.1098 23.5757 15.1364C23.6288 15.1895 23.7083 15.1895 23.7349 15.1364C23.9206 14.9505 24.0267 14.685 24.0267 14.3929C24.0532 13.8353 23.6022 13.3573 22.9921 13.3573ZM5.77566 10.2506L6.54496 9.32128C6.57149 9.29473 6.65107 9.26817 6.73065 9.26817C6.78371 9.29473 6.81023 9.3744 6.75718 9.4275L5.98788 10.3834C5.96135 10.41 5.90829 10.4365 5.88177 10.4365C5.85524 10.4365 5.82871 10.4365 5.80219 10.4099C5.74913 10.3834 5.7226 10.3037 5.77566 10.2506ZM8.32231 10.2772L7.47343 11.3924C7.42037 11.4455 7.4469 11.5252 7.49996 11.5517C7.52648 11.5783 7.553 11.5783 7.57952 11.5783H7.57954C7.60606 11.5783 7.65912 11.5517 7.68564 11.5252L8.53453 10.41C8.56106 10.3568 8.56106 10.2772 8.508 10.2506C8.42842 10.2241 8.34884 10.2241 8.32231 10.2772ZM8.93245 12.5607L9.43647 11.8969C9.463 11.8438 9.54259 11.8438 9.62217 11.8969C9.67523 11.9235 9.70175 12.0031 9.6487 12.0562L9.14467 12.6935C9.11814 12.7201 9.06509 12.7466 9.03856 12.7466C9.01203 12.7466 8.98551 12.7466 8.95898 12.7201C8.90592 12.6935 8.87939 12.6139 8.93245 12.5607ZM10.922 13.4105L10.5241 13.9681C10.4976 14.0212 10.4976 14.1008 10.5506 14.1274C10.5772 14.1539 10.6037 14.1539 10.6302 14.1539C10.6567 14.1539 10.7098 14.1274 10.7363 14.1008L11.1342 13.5432C11.1608 13.4901 11.1608 13.4104 11.1077 13.3839C11.0281 13.3308 10.9486 13.3573 10.922 13.4105ZM12.0892 15.2426L12.5137 14.6584C12.5402 14.6053 12.6198 14.5788 12.6994 14.6319C12.7524 14.6584 12.7524 14.7381 12.7259 14.7912L12.3015 15.3754C12.2749 15.4019 12.2219 15.4285 12.1953 15.4285H12.1953C12.1688 15.4285 12.1423 15.4285 12.1158 15.4019C12.0627 15.3754 12.0362 15.2957 12.0892 15.2426ZM14.5828 15.4019L14.1319 16.0392C14.1053 16.0923 14.1053 16.172 14.1584 16.1985C14.1849 16.2251 14.2114 16.2251 14.238 16.2251H14.238C14.2645 16.2251 14.3176 16.1985 14.3441 16.172L14.8216 15.5347C14.8481 15.4816 14.8481 15.4019 14.7951 15.3754C14.6889 15.3223 14.6359 15.3488 14.5828 15.4019ZM1.26595 25.9966C1.34554 25.97 1.39859 26.0231 1.42512 26.0762L1.71692 27.0587C1.74345 27.1383 1.69039 27.1915 1.63734 27.218H1.61081C1.55775 27.218 1.53123 27.1914 1.5047 27.1383L1.18637 26.1293C1.15984 26.0762 1.2129 26.0231 1.26595 25.9966ZM3.14942 25.5186H3.17594C3.229 25.4921 3.28206 25.439 3.25553 25.3593C3.09637 24.7486 2.99025 24.1379 2.91067 23.5006C2.88414 23.4475 2.83108 23.3944 2.77803 23.4209C2.72497 23.4209 2.67192 23.474 2.67192 23.5537C2.7515 24.191 2.85762 24.8282 3.01679 25.4655C3.04331 25.4921 3.09637 25.5186 3.14942 25.5186ZM4.92677 23.7396H4.90024C4.84719 23.7396 4.79413 23.713 4.7676 23.6599C4.71455 23.4209 4.60844 22.5978 4.60844 22.5712C4.60844 22.5181 4.6615 22.4385 4.71455 22.4385C4.76761 22.4385 4.84719 22.4916 4.84719 22.5447C4.84719 22.5447 4.9533 23.3944 5.00636 23.6068C5.03289 23.6599 4.97983 23.713 4.92677 23.7396ZM8.0305 14.7381C7.97745 14.7115 7.89786 14.7381 7.87134 14.7912C7.15509 16.464 6.4919 19.7566 6.67759 22.5447C6.67759 22.5978 6.73065 22.6509 6.7837 22.6509C6.86328 22.6509 6.88981 22.5978 6.88981 22.5181C6.73064 19.7566 7.36731 16.5172 8.08355 14.8709C8.11008 14.8443 8.08356 14.7647 8.0305 14.7381ZM9.22425 39.0341C9.1712 39.0075 9.14467 38.9279 9.19772 38.8748C9.25078 38.8217 9.33037 38.8217 9.38342 38.8748C9.88745 39.2996 10.3915 39.6714 10.9486 40.0431C11.0016 40.0697 11.0016 40.1493 10.9751 40.2024C10.9486 40.229 10.922 40.2555 10.869 40.2555C10.869 40.2555 10.8424 40.229 10.8159 40.229C10.2588 39.8572 9.72828 39.459 9.22425 39.0341ZM9.75481 36.8036C9.70175 36.8567 9.70175 36.9098 9.75481 36.963C9.78133 36.9895 10.6037 37.733 10.8424 37.9189C10.869 37.9454 10.8955 37.9454 10.922 37.9454C10.9485 37.9454 11.0016 37.9189 11.0281 37.8923C11.0547 37.8392 11.0547 37.7595 11.0016 37.733C10.8444 37.6229 10.501 37.317 10.2417 37.086L10.2414 37.0858L10.2413 37.0857L10.241 37.0854L10.2407 37.0851L10.2406 37.085L10.2404 37.0849L10.2404 37.0848L10.2403 37.0848L10.2401 37.0846L10.2401 37.0846L10.2397 37.0842L10.2397 37.0842L10.2392 37.0838C10.0621 36.926 9.92474 36.8036 9.91397 36.8036C9.88745 36.7505 9.80786 36.7505 9.75481 36.8036ZM10.0731 34.3077C10.0997 34.2546 10.1792 34.228 10.2323 34.2811L11.1077 35.1042C11.1342 35.1042 11.1342 35.1574 11.1342 35.1839C11.1077 35.237 11.0546 35.2901 11.0016 35.2901C10.9751 35.2901 10.9485 35.2901 10.922 35.2636L10.0731 34.467C10.0466 34.4139 10.0466 34.3608 10.0731 34.3077ZM10.9486 32.1569C10.8955 32.1038 10.8159 32.1038 10.7894 32.1569C10.7363 32.21 10.7363 32.2631 10.7894 32.3162L11.2934 32.8738C11.3199 32.9004 11.3465 32.9003 11.373 32.9003C11.3995 32.9003 11.426 32.9004 11.4526 32.8738C11.5056 32.8207 11.5056 32.741 11.4526 32.7145L10.9486 32.1569ZM11.6383 29.9795C11.6648 29.9264 11.7444 29.9264 11.7974 29.9795L12.2219 30.484C12.2749 30.5106 12.2749 30.5902 12.2219 30.6433C12.1953 30.6699 12.1688 30.6699 12.1423 30.6699C12.129 30.6566 12.1158 30.65 12.1025 30.6434C12.0892 30.6367 12.076 30.6301 12.0627 30.6168L11.6383 30.1388C11.5852 30.1123 11.5852 30.0326 11.6383 29.9795ZM40.0494 10.4365C40.0759 10.4631 40.1024 10.4896 40.1555 10.4896C40.182 10.4896 40.2086 10.4896 40.2351 10.4631C40.2881 10.41 40.2881 10.3303 40.2351 10.3038L39.4393 9.32129C39.3862 9.26818 39.3331 9.26819 39.2801 9.29474C39.227 9.34785 39.227 9.40095 39.2536 9.45405L40.0494 10.4365ZM38.4577 11.5783C38.4047 11.5783 38.3781 11.5517 38.3516 11.5252L37.5293 10.41C37.5027 10.3568 37.5027 10.3038 37.5558 10.2506C37.6088 10.2241 37.6884 10.2241 37.7149 10.2772L38.5638 11.3924C38.5904 11.4455 38.5904 11.5252 38.5373 11.5517C38.5108 11.5783 38.4842 11.5783 38.4577 11.5783ZM36.8926 12.6935C36.9191 12.7201 36.9456 12.7466 36.9987 12.7466C37.0252 12.7466 37.0518 12.7466 37.0783 12.7201C37.1313 12.667 37.1313 12.6139 37.1048 12.5608L36.6008 11.8969C36.5743 11.8438 36.4947 11.8438 36.4416 11.8704C36.3886 11.9235 36.3886 11.9766 36.4151 12.0297L36.8926 12.6935ZM35.407 14.1539C35.354 14.1539 35.3275 14.1274 35.3009 14.1008L34.9296 13.5432C34.903 13.4901 34.903 13.4104 34.9561 13.3839C35.0091 13.3573 35.0887 13.3573 35.1152 13.4105L35.5132 13.9681C35.5397 14.0212 35.5397 14.1008 35.4866 14.1274C35.4601 14.1539 35.4336 14.1539 35.407 14.1539ZM33.7358 15.3754C33.7623 15.4019 33.7888 15.4285 33.8419 15.4285C33.8684 15.4285 33.895 15.4285 33.9215 15.4019C33.9745 15.3754 33.9745 15.2957 33.948 15.2426L33.5236 14.6584C33.4705 14.6319 33.3909 14.6319 33.3644 14.685C33.3379 14.7115 33.3379 14.7646 33.3379 14.7912L33.7358 15.3754ZM31.7993 16.2251C31.7462 16.2251 31.7197 16.1985 31.6932 16.172L31.2422 15.5347C31.2157 15.5347 31.2157 15.5081 31.2157 15.5081C31.1891 15.455 31.2157 15.3754 31.2687 15.3488C31.3218 15.3223 31.4014 15.3488 31.4279 15.4019L31.9054 16.0392C31.9319 16.0923 31.9319 16.172 31.8789 16.1985C31.8523 16.2251 31.8258 16.2251 31.7993 16.2251H31.7993ZM44.5591 26.0762C44.5856 26.0231 44.6652 25.97 44.7182 25.9966C44.7978 26.0231 44.8244 26.0762 44.7713 26.1559L44.453 27.1649C44.453 27.218 44.3999 27.2446 44.3469 27.2446H44.3203C44.2673 27.218 44.2142 27.1384 44.2407 27.0852L44.5591 26.0762ZM43.2062 23.3944C43.1531 23.3944 43.0735 23.4209 43.0735 23.5006C42.9939 24.1379 42.8878 24.7486 42.7287 25.3593C42.7021 25.4124 42.7287 25.4921 42.8083 25.5186H42.8348C42.8878 25.5186 42.9409 25.4921 42.9409 25.439C43.1001 24.8017 43.2327 24.1644 43.2857 23.5271C43.3123 23.4475 43.2858 23.4209 43.2062 23.3944ZM41.1635 22.5447C41.1635 22.465 41.2431 22.4385 41.2962 22.4385C41.3492 22.4385 41.4023 22.4916 41.3758 22.5712C41.3758 22.5978 41.2696 23.4475 41.2166 23.6599C41.2166 23.713 41.1635 23.7396 41.1105 23.7396H41.084C41.0309 23.7396 40.9778 23.6599 41.0044 23.6068C41.0574 23.3944 41.1635 22.5447 41.1635 22.5447ZM37.9802 14.7381C37.9272 14.7647 37.9006 14.8443 37.9272 14.8974C38.6169 16.5437 39.2801 19.7832 39.1209 22.5447C39.1209 22.5978 39.174 22.6775 39.227 22.6775C39.2801 22.6775 39.3331 22.6244 39.3331 22.5712C39.4923 19.7832 38.8291 16.4906 38.1394 14.8178C38.1129 14.7381 38.0333 14.7116 37.9802 14.7381ZM35.0622 40.0431C35.5927 39.6979 36.1233 39.2996 36.6273 38.8748C36.6804 38.8217 36.76 38.8217 36.7865 38.8748C36.813 38.9279 36.813 38.981 36.76 39.0341C36.2559 39.459 35.7254 39.8572 35.1683 40.229C35.1683 40.2555 35.1418 40.2555 35.1152 40.2555C35.0622 40.2555 35.0357 40.229 35.0091 40.2024C34.9826 40.1493 35.0091 40.0697 35.0622 40.0431ZM35.0622 37.9454C35.0887 37.9454 35.1152 37.9454 35.1418 37.9189C35.407 37.733 36.2029 36.9895 36.2294 36.963C36.2825 36.9098 36.2825 36.8567 36.2294 36.8036C36.1763 36.7505 36.1233 36.7505 36.0702 36.8036C36.0702 36.8036 35.2479 37.5737 34.9826 37.733C34.9295 37.7595 34.903 37.8392 34.9561 37.8923C34.9826 37.9189 35.0091 37.9454 35.0622 37.9454ZM34.903 35.0777L35.7519 34.2811C35.8315 34.228 35.8845 34.2546 35.9376 34.2811C35.9641 34.3342 35.9641 34.3873 35.9111 34.4404L35.0622 35.237C35.0357 35.2636 35.0091 35.2636 34.9826 35.2636C34.9561 35.2636 34.9295 35.2636 34.903 35.237C34.85 35.2105 34.85 35.1308 34.903 35.0777ZM35.0622 32.1569L34.5582 32.7145C34.5051 32.7676 34.5051 32.8472 34.5582 32.8738C34.5847 32.9003 34.6112 32.9003 34.6377 32.9003C34.6643 32.9003 34.7173 32.8738 34.7173 32.8738L35.2214 32.3162C35.2744 32.2631 35.2479 32.1834 35.1948 32.1569C35.1683 32.1303 35.0887 32.1303 35.0622 32.1569ZM34.2133 29.953C34.2398 29.8999 34.3194 29.8999 34.3725 29.953C34.4255 30.0326 34.4255 30.0857 34.399 30.1123L33.9745 30.5902C33.9745 30.5902 33.9215 30.6168 33.895 30.6168C33.8684 30.6168 33.8419 30.6168 33.8154 30.5902C33.7623 30.5637 33.7623 30.484 33.8154 30.4309L34.2133 29.953Z" fill="#1C2240"/>
</g>
<defs>
<radialGradient id="paint0_radial_2_116" cx="0" cy="0" r="1" gradientUnits="userSpaceOnUse" gradientTransform="translate(23.0186 23.5) rotate(90) scale(23.4469 22.939)">
<stop stop-color="#FFD467"/>
<stop offset="1" stop-color="#FFC702"/>
</radialGradient>
<clipPath id="clip0_2_116">
<rect width="46" height="47" fill="white"/>
</clipPath>
</defs>
</svg>
