<svg width="14" height="16" viewBox="0 0 14 16" fill="none" xmlns="http://www.w3.org/2000/svg">
<path d="M7.00007 9.60352L6.25553 10.2711L7.00007 11.1015L7.74461 10.2711L7.00007 9.60352ZM8.00007 0.99983C8.00007 0.447544 7.55235 -0.000170472 7.00007 -0.000170499C6.44779 -0.000170526 6.00007 0.447544 6.00007 0.999829L8.00007 0.99983ZM1.96981 5.49127L6.25553 10.2711L7.74461 8.93594L3.4589 4.15611L1.96981 5.49127ZM7.74461 10.2711L12.0303 5.49127L10.5412 4.15611L6.25553 8.93594L7.74461 10.2711ZM8.00007 9.60352L8.00007 0.99983L6.00007 0.999829L6.00007 9.60352L8.00007 9.60352Z" fill="#011D5B"/>
<path d="M1 11.5156L1 12.4716C1 13.5275 1.76751 14.3835 2.71429 14.3835L11.2857 14.3835C12.2325 14.3835 13 13.5275 13 12.4716V11.5156" stroke="#011D5B" stroke-width="2"/>
</svg>
