<svg width="83" height="95" viewBox="0 0 83 95" fill="none" xmlns="http://www.w3.org/2000/svg">
<g filter="url(#filter0_d_744_1449)">
<path d="M10 14C10 11.7909 11.7909 10 14 10H52.6849C53.8384 10 54.9357 10.4979 55.6952 11.366L65 22V73C65 75.2091 63.2091 77 61 77H14C11.7909 77 10 75.2091 10 73V14Z" fill="white"/>
<path d="M10.5 14C10.5 12.067 12.067 10.5 14 10.5H52.6849C53.6942 10.5 54.6543 10.9357 55.3189 11.6952L64.5 22.1879V73C64.5 74.933 62.933 76.5 61 76.5H14C12.067 76.5 10.5 74.933 10.5 73V14Z" stroke="#001B55" stroke-opacity="0.1"/>
</g>
<rect x="21" y="19" width="25" height="3" rx="1.5" fill="#001B55" fill-opacity="0.5"/>
<rect x="21" y="27" width="34" height="3" rx="1.5" fill="#001B55" fill-opacity="0.15"/>
<rect x="21" y="35" width="34" height="3" rx="1.5" fill="#001B55" fill-opacity="0.15"/>
<rect x="21" y="43" width="34" height="3" rx="1.5" fill="#001B55" fill-opacity="0.15"/>
<rect x="21" y="51" width="34" height="3" rx="1.5" fill="#001B55" fill-opacity="0.15"/>
<rect x="21" y="59" width="16" height="3" rx="1.5" fill="#001B55" fill-opacity="0.15"/>
<rect x="21" y="67" width="16" height="3" rx="1.5" fill="#001B55" fill-opacity="0.15"/>
<path d="M54.5 21.5V11.2854L63.8634 21.5H54.5Z" stroke="#E5E8EE"/>
<path d="M45.6421 75.1579C46.0507 73.8341 46.2549 73.1721 46.622 72.8249C46.9891 72.4777 47.3756 72.5807 48.1486 72.7868L49.2418 73.0782C50.0148 73.2843 50.4013 73.3874 50.5146 73.8626C50.6278 74.3379 50.4235 74.9999 50.0149 76.3237L49.0287 79.5194C48.6411 80.7753 48.4473 81.4033 48.1573 81.5338C47.8673 81.6644 47.6987 81.1995 47.3615 80.2699L47.2536 79.9723C47.064 79.4496 46.9692 79.1882 46.7801 79.1378C46.5911 79.0874 46.3616 79.2624 45.9028 79.6122L45.6416 79.8113C44.8255 80.4335 44.4174 80.7446 44.2459 80.4911C44.0745 80.2375 44.2683 79.6095 44.6559 78.3536L45.6421 75.1579Z" fill="#001B55"/>
<path d="M54.5469 75.1579C54.1383 73.8341 53.934 73.1721 53.567 72.8249C53.1999 72.4777 52.8134 72.5807 52.0404 72.7868L50.9471 73.0782C50.1741 73.2843 49.7876 73.3874 49.6744 73.8626C49.5612 74.3379 49.7655 74.9999 50.174 76.3237L51.1603 79.5194C51.5479 80.7753 51.7417 81.4033 52.0317 81.5338C52.3217 81.6644 52.4903 81.1995 52.8275 80.2699L52.9354 79.9723C53.125 79.4496 53.2198 79.1882 53.4088 79.1378C53.5979 79.0874 53.8273 79.2624 54.2862 79.6122L54.5474 79.8113C55.3635 80.4335 55.7716 80.7446 55.943 80.4911C56.1145 80.2375 55.9207 79.6095 55.5331 78.3536L54.5469 75.1579Z" fill="#001B55"/>
<path fill-rule="evenodd" clip-rule="evenodd" d="M50 74C54.4183 74 58 70.4183 58 66C58 61.5817 54.4183 58 50 58C45.5817 58 42 61.5817 42 66C42 70.4183 45.5817 74 50 74ZM49.8793 69.3069L54.3238 63.9735L52.7873 62.6931L49.0439 67.1853L47.1516 65.2929L45.7373 66.7071L48.404 69.3738L49.1783 70.1481L49.8793 69.3069Z" fill="#4DC52F"/>
<defs>
<filter id="filter0_d_744_1449" x="0" y="0" width="83" height="95" filterUnits="userSpaceOnUse" color-interpolation-filters="sRGB">
<feFlood flood-opacity="0" result="BackgroundImageFix"/>
<feColorMatrix in="SourceAlpha" type="matrix" values="0 0 0 0 0 0 0 0 0 0 0 0 0 0 0 0 0 0 127 0" result="hardAlpha"/>
<feOffset dx="4" dy="4"/>
<feGaussianBlur stdDeviation="7"/>
<feComposite in2="hardAlpha" operator="out"/>
<feColorMatrix type="matrix" values="0 0 0 0 0 0 0 0 0 0.105882 0 0 0 0 0.333333 0 0 0 0.25 0"/>
<feBlend mode="normal" in2="BackgroundImageFix" result="effect1_dropShadow_744_1449"/>
<feBlend mode="normal" in="SourceGraphic" in2="effect1_dropShadow_744_1449" result="shape"/>
</filter>
</defs>
</svg>
